<svg xmlns="http://www.w3.org/2000/svg" width="21.255" height="20.571" viewBox="0 0 21.255 20.571">
  <g id="Group_599" data-name="Group 599" transform="translate(-2465.411 -1121.522)">
    <path id="Path_4734" data-name="Path 4734" d="M10.519,6.469A.753.753,0,0,0,9.235,7V8.787a.753.753,0,1,0,1.507,0V7A.751.751,0,0,0,10.519,6.469Zm9.3,0A.753.753,0,0,0,18.535,7V8.787a.753.753,0,1,0,1.5,0V7a.749.749,0,0,0-.221-.533ZM5,10.72V8.957a.806.806,0,0,1,.8-.8H8.71v.633a1.272,1.272,0,1,0,2.543,0V8.153H18.01v.633a1.272,1.272,0,1,0,2.541,0V8.153h2.908a.806.806,0,0,1,.8.8V10.72ZM13.511,12.6H11.239v2.272h2.275V12.6Zm-2.534-.518H13.77a.259.259,0,0,1,.259.259v2.791a.259.259,0,0,1-.259.259H10.977a.259.259,0,0,1-.259-.259V12.345A.259.259,0,0,1,10.977,12.086Zm2.534,4.676H11.239v2.272h2.275V16.762Zm-2.534-.518H13.77a.259.259,0,0,1,.259.264v2.786a.259.259,0,0,1-.259.259H10.977a.259.259,0,0,1-.259-.259V16.508a.259.259,0,0,1,.259-.259Zm2.534,4.674H11.239v2.275h2.275V20.918ZM10.977,20.4H13.77a.259.259,0,0,1,.259.259v2.793a.259.259,0,0,1-.259.254H10.977a.259.259,0,0,1-.259-.259V20.659A.262.262,0,0,1,10.977,20.4Zm7.047-7.8H15.752v2.272h2.272V12.6Zm-2.531-.518h2.791a.259.259,0,0,1,.259.259v2.791a.259.259,0,0,1-.259.259H15.493a.259.259,0,0,1-.259-.259V12.345A.259.259,0,0,1,15.493,12.086Zm7.047.518H20.265v2.272H22.54Zm-2.534-.518H22.8a.259.259,0,0,1,.259.259v2.791a.259.259,0,0,1-.259.259H20.006a.259.259,0,0,1-.259-.259V12.345A.259.259,0,0,1,20.006,12.086ZM9,16.762H6.723v2.272H9V16.762Zm-2.531-.518H9.254a.259.259,0,0,1,.259.264v2.786a.259.259,0,0,1-.259.259H6.464a.259.259,0,0,1-.264-.259V16.508a.259.259,0,0,1,.264-.264ZM9,12.6H6.723v2.272H9V12.6Zm-2.531-.518H9.254a.259.259,0,0,1,.259.259v2.791a.259.259,0,0,1-.259.259H6.464a.259.259,0,0,1-.264-.259V12.345a.259.259,0,0,1,.259-.259ZM9,20.918H6.723v2.275H9V20.918ZM6.464,20.4H9.254a.259.259,0,0,1,.259.259v2.793a.259.259,0,0,1-.259.254H6.464a.259.259,0,0,1-.264-.254V20.659a.259.259,0,0,1,.259-.259Zm9.449-1.365h-.161V16.762h2.272a6.552,6.552,0,0,0-1.173.959,5.508,5.508,0,0,0-.938,1.3Zm5.255-3.16a5.907,5.907,0,0,0-2.625.609.259.259,0,0,0-.259-.24H15.493a.259.259,0,0,0-.259.264v2.786a.259.259,0,0,0,.259.259h.175a5.965,5.965,0,0,0,.218,5.005H5.809a.806.806,0,0,1-.809-.8V11.229H24.263v5.519a5.915,5.915,0,0,0-3.1-.869Z" transform="translate(2460.411 1115.271)" fill="#2465e9" fill-rule="evenodd"/>
    <g id="clock-circle-svgrepo-com" transform="translate(2476.474 1131.984)">
      <g id="Group_598" data-name="Group 598" transform="translate(0 0)">
        <path id="Path_4731" data-name="Path 4731" d="M7.1,12.109A5.055,5.055,0,1,0,2,7.055,5.076,5.076,0,0,0,7.1,12.109Z" transform="translate(-2 -2)" fill="#2465e9"/>
        <path id="Path_4732_-_Outline" data-name="Path 4732 - Outline" d="M11.623,6.75a.874.874,0,0,1,.873.873V9.248l.986.986a.873.873,0,0,1-1.234,1.234l-1.242-1.242a.866.866,0,0,1-.256-.617V7.623A.874.874,0,0,1,11.623,6.75Z" transform="translate(-6.506 -4.566)" fill="#fff"/>
      </g>
    </g>
  </g>
</svg>
