<?xml version="1.0" encoding="utf-8"?>
<!-- Generator: Adobe Illustrator 28.4.1, SVG Export Plug-In . SVG Version: 6.00 Build 0)  -->
<svg version="1.0" xmlns="http://www.w3.org/2000/svg" xmlns:xlink="http://www.w3.org/1999/xlink" x="0px" y="0px"
	 viewBox="0 0 373 228.1" style="enable-background:new 0 0 373 228.1;" xml:space="preserve">
<style type="text/css">
	.st0{fill:#DE0000;}
	.st1{opacity:0.15;fill:url(#SVGID_1_);}
	.st2{opacity:0.15;fill:url(#SVGID_00000135664350357618921530000013624385605596521609_);}
	.st3{opacity:0.15;fill:url(#SVGID_00000136411469460538296180000005644033529371627928_);}
	.st4{opacity:0.15;fill:url(#SVGID_00000023976857932784757100000010339652884676721070_);}
	.st5{opacity:0.1;fill:url(#SVGID_00000086658159498870934900000014931622007915409589_);}
	.st6{opacity:0.1;fill:url(#SVGID_00000047780866410725436430000016668225785383279259_);}
	.st7{opacity:0.1;fill:url(#SVGID_00000155130581568965004460000015294190240907084962_);}
	.st8{opacity:0.1;fill:url(#SVGID_00000074439005071463425960000017956159815809387942_);}
	.st9{opacity:0.1;}
	.st10{opacity:0.1;fill:url(#SVGID_00000083797000418994578610000002969118714291156885_);}
	.st11{opacity:0.15;}
	.st12{opacity:0.2;fill:url(#SVGID_00000085947454050241080210000009574665143885886654_);}
	.st13{opacity:0.2;fill:url(#SVGID_00000183251321478232572160000003825013099950529163_);}
	.st14{opacity:0.4;fill:url(#SVGID_00000059274974668768381930000008610115588097126789_);}
	.st15{opacity:5.000000e-02;fill:url(#SVGID_00000176756865304509128820000014564174751175207819_);}
	.st16{opacity:5.000000e-02;fill:url(#SVGID_00000171692927365940691970000010072826024286613666_);}
	.st17{opacity:5.000000e-02;fill:url(#SVGID_00000142154550299883381110000007182857223802504102_);}
	.st18{fill:#141C1E;}
	.st19{fill:#303E42;}
	.st20{opacity:0.5;fill:#3D4B4F;}
	.st21{opacity:0.2;fill:#FFFFFF;}
	.st22{opacity:0.5;fill:#FFFFFF;}
	.st23{opacity:0.7;fill:#414E52;}
	.st24{fill:url(#SVGID_00000035500406360442295410000012351972210395999385_);}
	.st25{fill:url(#SVGID_00000098939497911992943540000011055260158473270421_);}
	.st26{fill:#404B4D;}
	.st27{fill:#FFFFFF;}
	.st28{fill:url(#SVGID_00000077319301758061137900000012052986472050122396_);}
	.st29{fill:url(#SVGID_00000145743399182004261740000007525495663611641757_);}
	.st30{fill:url(#SVGID_00000060751831286513780700000001339720060161312671_);}
	.st31{fill:url(#SVGID_00000142171438637917868160000015034332664224884145_);}
	.st32{fill:url(#SVGID_00000027563295711913154980000013785767934140044204_);}
	.st33{fill:url(#SVGID_00000168812625918393284320000007133101010694985115_);}
	.st34{opacity:0.5;fill:url(#SVGID_00000041998668901923737130000004714347001910109101_);}
	.st35{opacity:0.8;fill:#FFFFFF;}
	.st36{fill:url(#SVGID_00000115500170948976140550000012573967749678678716_);}
	.st37{fill:url(#SVGID_00000083059446790323173260000008444459351329653155_);}
	.st38{fill:url(#SVGID_00000169542627810344469310000012714735121175693977_);}
	.st39{fill:url(#SVGID_00000154412736834937558400000003715861784576323755_);}
	.st40{fill:url(#SVGID_00000100361911060414328810000016779593479362025895_);}
	.st41{fill:url(#SVGID_00000063599555744602530000000009108071078277825455_);}
	.st42{opacity:0.5;fill:url(#SVGID_00000044893113711882761810000015076143423342326444_);}
</style>
<g id="ôîí">
</g>
<g id="Ñëîé_2">
</g>
<g id="Ñëîé_1">
	<g>
		<path class="st0" d="M340.7,68.7c-4.1-4.2-13.4-5.5-13.4-5.5s-8-2.1-12-2.6c-4-0.5-18.2-1-27.9-0.8c-9.7,0.2-14.4,2.8-14.4,2.8
			l-123.8,0.2l0.8-6.8c0,0-1.8,0-2.7,0.3c-0.8,0.4-1.6,1.8-1.8,3.5c-0.1,0.8-0.3,1.9-0.4,2.9l-19.1,0c0,0-10.3-2.9-24.2-2.9
			c-13.9,0-24.4,0.6-29.6,1.9c0,0-11.9,0.2-18.7,4.3c-6.8,4.2-10.6,8.5-13.3,16.1c-2.7,7.6-4.4,15.3-4.7,20.5
			c-0.2,5.2-0.2,22.7-0.2,22.7s0,17.5,0.2,22.7c0.2,5.2,2,12.9,4.7,20.5c2.7,7.6,6.4,11.9,13.3,16.1c6.8,4.2,18.7,4.3,18.7,4.3
			c5.2,1.3,15.7,1.9,29.6,1.9c13.9,0,24.2-2.9,24.2-2.9l19.1,0c0.1,1,0.3,2.1,0.4,2.9c0.2,1.7,1,3.2,1.8,3.5
			c0.8,0.4,2.7,0.3,2.7,0.3l-0.8-6.8l123.8,0.2c0,0,4.7,2.5,14.4,2.8c9.7,0.2,23.9-0.3,27.9-0.8c4-0.5,12-2.6,12-2.6
			s9.3-1.3,13.4-5.5c4.1-4.2,11.8-18,11.9-56.6C352.5,86.6,344.9,72.9,340.7,68.7z"/>
		<linearGradient id="SVGID_1_" gradientUnits="userSpaceOnUse" x1="72.7632" y1="189.304" x2="126.1695" y2="189.304">
			<stop  offset="5.347590e-03" style="stop-color:#000000"/>
			<stop  offset="0.5348" style="stop-color:#FFFFFF"/>
			<stop  offset="1" style="stop-color:#000000"/>
		</linearGradient>
		<path class="st1" d="M72.8,189c1.6-0.7,10.3-1.4,21-1.3s32.4,0.2,32.4,0.2s-10.3,2.9-24.2,2.9C88.4,190.9,78.1,190.3,72.8,189z"/>
		
			<linearGradient id="SVGID_00000172406578398799451730000012741865805121816254_" gradientUnits="userSpaceOnUse" x1="72.7632" y1="61.2987" x2="126.1695" y2="61.2987">
			<stop  offset="5.347590e-03" style="stop-color:#000000"/>
			<stop  offset="0.5348" style="stop-color:#FFFFFF"/>
			<stop  offset="1" style="stop-color:#000000"/>
		</linearGradient>
		<path style="opacity:0.15;fill:url(#SVGID_00000172406578398799451730000012741865805121816254_);" d="M72.8,61.6
			c1.6,0.7,10.3,1.4,21,1.3c10.7-0.1,32.4-0.2,32.4-0.2s-10.3-2.9-24.2-2.9C88.4,59.7,78.1,60.3,72.8,61.6z"/>
		
			<linearGradient id="SVGID_00000041990882689000956240000015485665184806268816_" gradientUnits="userSpaceOnUse" x1="273.0904" y1="61.3846" x2="327.3267" y2="61.3846">
			<stop  offset="5.347590e-03" style="stop-color:#000000"/>
			<stop  offset="0.5348" style="stop-color:#FFFFFF"/>
			<stop  offset="1" style="stop-color:#000000"/>
		</linearGradient>
		<path style="opacity:0.15;fill:url(#SVGID_00000041990882689000956240000015485665184806268816_);" d="M327.3,63.1
			c0,0-8-2.1-12-2.6c-4-0.5-18.2-1-27.9-0.8c-9.7,0.2-14.4,2.8-14.4,2.8C291.4,60.9,327.3,63.1,327.3,63.1z"/>
		
			<linearGradient id="SVGID_00000121257197164721839120000016065693170194204346_" gradientUnits="userSpaceOnUse" x1="273.0904" y1="189.2184" x2="327.3267" y2="189.2184">
			<stop  offset="5.347590e-03" style="stop-color:#000000"/>
			<stop  offset="0.5348" style="stop-color:#FFFFFF"/>
			<stop  offset="1" style="stop-color:#000000"/>
		</linearGradient>
		<path style="opacity:0.15;fill:url(#SVGID_00000121257197164721839120000016065693170194204346_);" d="M327.3,187.5
			c0,0-8,2.1-12,2.6c-4,0.5-18.2,1-27.9,0.8c-9.7-0.2-14.4-2.8-14.4-2.8C291.4,189.7,327.3,187.5,327.3,187.5z"/>
		
			<linearGradient id="SVGID_00000020389621193300852590000008030786933179308735_" gradientUnits="userSpaceOnUse" x1="89.7817" y1="79.1312" x2="110.6171" y2="79.1312">
			<stop  offset="0" style="stop-color:#FFFFFF"/>
			<stop  offset="1" style="stop-color:#000000"/>
		</linearGradient>
		<path style="opacity:0.1;fill:url(#SVGID_00000020389621193300852590000008030786933179308735_);" d="M329.7,76.4
			c-6.2-4.9-21.1-6-21.1-6l-77-2.6l-92.5-1.1c-16,0-50,1.8-50,1.8s22.5,0.2,26,0.3c3.6,0.1,14.6,0.4,17.6,1.1
			c3,0.7,29.8,7.2,43.3,9.8c13.5,2.5,40.3,3.2,51.3,3.2c11.1,0,39.2-0.1,55.9-0.9c5.6-0.3,12.7-0.9,19.6-1.8
			c3.9-0.5,21.7,3.2,28.3,7.5l6.1,3.8C336.4,86.3,333.2,79,329.7,76.4z"/>
		
			<linearGradient id="SVGID_00000069381964113666788210000001153122962820470150_" gradientUnits="userSpaceOnUse" x1="89.7779" y1="172.5077" x2="110.4991" y2="172.5077">
			<stop  offset="0" style="stop-color:#FFFFFF"/>
			<stop  offset="1" style="stop-color:#000000"/>
		</linearGradient>
		<path style="opacity:0.1;fill:url(#SVGID_00000069381964113666788210000001153122962820470150_);" d="M306,170.9
			c-7.9-0.9-16.3-1.9-22.8-2.2c-16.7-0.9-44.8-0.9-55.9-0.9c-11.1,0-37.9,0.7-51.3,3.2c-13.5,2.5-40.3,9.1-43.3,9.8
			c-3,0.7-14,1-17.6,1.1c-3.6,0.1-26,0.3-26,0.3s34,1.8,50,1.8l92.5-1.1l77-2.6c0,0,14.9-1.1,21.1-6c3.1-3.1,5.1-7.4,6.1-10.2
			c1-2.8-2.8-2.8-2.8-2.8S315.7,172,306,170.9z"/>
		
			<linearGradient id="SVGID_00000104693644056095308020000004237156560399595659_" gradientUnits="userSpaceOnUse" x1="102.6658" y1="125.3019" x2="47.7654" y2="125.3019">
			<stop  offset="0" style="stop-color:#FFFFFF"/>
			<stop  offset="1" style="stop-color:#000000"/>
		</linearGradient>
		<path style="opacity:0.1;fill:url(#SVGID_00000104693644056095308020000004237156560399595659_);" d="M45.2,151.2
			c-0.7,0.6-1.8-0.2-2.5-1.2c-1.2-1.5-1.7-3-2.1-5.6c-0.7-4.1-0.9-11.3-0.9-19.1c0-7.8,0.3-15,0.9-19.1c0.4-2.6,0.9-4.1,2.1-5.6
			c0.7-1,1.8-1.8,2.5-1.2c0.1-0.4,0.8-3,7.7-5.2c11.6-3.7,50.9-12.3,50.9-12.3s-48.6,9.2-56.7,13.1c0,0,0,0-0.1,0l3.3-5.8
			c-2.4,2.3-5,4.4-7.5,5.8c0,0,3.8-13.1,9.4-20.9c2.9-4.1,5.9-6.4,8.4-7.8v0c0,0-4.1,0.7-9,7c-4.9,6.3-7.6,15.4-9.4,20.3
			c-1.8,4.9-2.9,10.1-3.3,18c-0.4,7.8-0.2,13.5-0.2,13.5s-0.2,5.7,0.2,13.5c0.4,7.8,1.5,13,3.3,18c1.8,4.9,4.5,14,9.4,20.3
			c4.9,6.3,9,7,9,7v0c-2.5-1.3-5.5-3.7-8.4-7.8c-5.5-7.8-9.4-20.9-9.4-20.9c2.5,1.4,5.1,3.5,7.5,5.8l-3.3-5.8c0,0,0,0,0.1,0
			c8.1,4,56.7,13.1,56.7,13.1s-39.3-8.6-50.9-12.3C46.1,154.2,45.3,151.6,45.2,151.2z"/>
		
			<linearGradient id="SVGID_00000005248697383437166210000006712605077929046949_" gradientUnits="userSpaceOnUse" x1="66.7804" y1="64.3443" x2="96.4523" y2="64.3443">
			<stop  offset="0" style="stop-color:#FFFFFF"/>
			<stop  offset="1" style="stop-color:#000000"/>
		</linearGradient>
		<path style="opacity:0.1;fill:url(#SVGID_00000005248697383437166210000006712605077929046949_);" d="M145.2,62.6l-19.1,0
			c0,0-21.7,0.1-32.4,0.2c-10.7,0.1-19.4-0.6-21-1.3c-2.2,0.8-7,3.4-7,3.4c1.1,0,1.5,0.8,1.2,2.2c9-1.3,50.4-3.1,59.4-3.1
			c2.6,0,9.5-0.1,18.8-0.1C145.1,63.5,145.2,63.1,145.2,62.6z"/>
		<path class="st9" d="M330.4,63.7c-1.8-0.4-3.1-0.6-3.1-0.6s-35.9-2.2-54.2-0.7l-123.8,0.2l-0.2,1.3c25.1-0.2,63.7-0.5,84.3-0.4
			c29.8,0.2,101.6,3.9,101.6,3.9C334.2,66.3,332.1,64.8,330.4,63.7z"/>
		
			<linearGradient id="SVGID_00000034050520713633706040000007404299900468335517_" gradientUnits="userSpaceOnUse" x1="65.8845" y1="186.2589" x2="94.8937" y2="186.2589">
			<stop  offset="0" style="stop-color:#FFFFFF"/>
			<stop  offset="1" style="stop-color:#000000"/>
		</linearGradient>
		<path style="opacity:0.1;fill:url(#SVGID_00000034050520713633706040000007404299900468335517_);" d="M145.1,186.7
			c-9.3-0.1-16.2-0.1-18.8-0.1c-9,0-50.5-1.7-59.4-3.1c0.3,1.4-0.1,2.2-1.2,2.2c0,0,4.8,2.6,7,3.4c1.6-0.7,10.3-1.4,21-1.3
			s32.4,0.2,32.4,0.2l19.1,0C145.2,187.5,145.1,187.1,145.1,186.7z"/>
		<path class="st9" d="M233.4,187.1c-20.5,0.2-59.1-0.2-84.3-0.4l0.2,1.3l123.8,0.2c18.3,1.5,54.2-0.7,54.2-0.7s1.3-0.2,3.1-0.6
			c1.7-1.1,3.8-2.5,4.7-3.6C335.1,183.2,263.2,186.9,233.4,187.1z"/>
		<path class="st11" d="M340.7,68.7c-2.6-2.6-7.1-4.1-10.1-4.9l0,0l0,0c1.7,1.1,3.7,2.5,4.5,3.5c0,0,4.8,3.4,7.6,10.9
			c0.8,2,1.6,4.7,2.4,8c0.8,0,2.9,0.2,3.6,2.3c1.1,3.6,3,15.9,3.4,36.7c-0.4,20.8-2.3,33.2-3.4,36.7c-0.6,2.2-2.7,2.4-3.6,2.3
			c-0.8,3.3-1.6,5.9-2.4,8c-2.9,7.5-7.6,10.9-7.6,10.9c-0.8,1.1-2.8,2.4-4.5,3.5l0,0l0,0c3.1-0.8,7.6-2.3,10.1-4.9
			c4.1-4.2,11.8-18,11.9-56.6C352.5,86.6,344.9,72.9,340.7,68.7z"/>
		<path class="st9" d="M348.6,162c1.1-3.6,3-15.9,3.4-36.7c-0.4-20.8-2.3-33.2-3.4-36.7c-0.6-2.2-2.7-2.4-3.6-2.3
			c2.1,8.9,4,22.3,4,39.1c0,16.8-1.9,30.2-4,39.1C345.9,164.4,348,164.2,348.6,162z"/>
		
			<linearGradient id="SVGID_00000119816605012097827570000002980454189285826436_" gradientUnits="userSpaceOnUse" x1="347.5083" y1="89.3877" x2="346.5765" y2="87.2912">
			<stop  offset="0" style="stop-color:#FFFFFF"/>
			<stop  offset="1" style="stop-color:#000000"/>
		</linearGradient>
		<path style="opacity:0.2;fill:url(#SVGID_00000119816605012097827570000002980454189285826436_);" d="M348.8,89.1
			c0-0.2-0.1-0.4-0.1-0.5c-0.6-2.2-2.7-2.4-3.6-2.3c0.2,0.7,0.3,1.4,0.5,2.2C346.3,88.3,347.4,88.4,348.8,89.1z"/>
		
			<linearGradient id="SVGID_00000013179092037392715890000015876703016737795771_" gradientUnits="userSpaceOnUse" x1="347.3145" y1="161.3479" x2="346.4625" y2="164.2685">
			<stop  offset="0" style="stop-color:#FFFFFF"/>
			<stop  offset="1" style="stop-color:#000000"/>
		</linearGradient>
		<path style="opacity:0.2;fill:url(#SVGID_00000013179092037392715890000015876703016737795771_);" d="M348.6,162
			c0-0.2,0.1-0.3,0.1-0.5c-1.3,0.6-2.4,0.7-3.2,0.7c-0.2,0.8-0.3,1.5-0.5,2.2C345.9,164.4,348,164.2,348.6,162z"/>
		<path class="st9" d="M148.1,56c-0.2,0-0.4,0.1-0.6,0.2c-0.8,0.4-1.6,1.8-1.8,3.5c-0.2,1.7-1,5.1-0.3,5.8h1.7
			c-0.4-0.5-0.9-1.5-0.6-3.1C146.8,60.5,147.6,57.6,148.1,56z"/>
		<path class="st9" d="M147.5,194.4c0.8,0.4,2.7,0.3,2.7,0.3l-0.1-0.7c-3.5-1-3.3-3.7-3.4-6c-0.1-1.4,0.2-2.4,0.4-3h-1.6
			c-0.7,0.7,0.1,4.1,0.3,5.8C145.9,192.6,146.6,194.1,147.5,194.4z"/>
		
			<linearGradient id="SVGID_00000098929138747879898810000011587794639524968080_" gradientUnits="userSpaceOnUse" x1="42.5358" y1="125.3019" x2="44.9318" y2="125.3019">
			<stop  offset="0" style="stop-color:#FFFFFF"/>
			<stop  offset="1" style="stop-color:#000000"/>
		</linearGradient>
		<path style="opacity:0.4;fill:url(#SVGID_00000098929138747879898810000011587794639524968080_);" d="M44.4,125.3
			c0.1,7.8,1.1,18.4,1.3,23.1c0.2,4.3-1.8,3.1-3,1.6c-1.2-1.5-1.7-3-2.1-5.6c-0.7-4.1-0.9-11.3-0.9-19.1c0-7.8,0.3-15,0.9-19.1
			c0.4-2.6,0.9-4.1,2.1-5.6c1.2-1.5,3.2-2.7,3,1.6C45.5,106.9,44.5,117.5,44.4,125.3z"/>
		<path class="st9" d="M40.6,86.3c2.3-7.4,5.8-14.3,12.9-18.6c6.9-4.2,11.5-5.3,11.7-5.3C61.5,62.9,57,64,53.7,66
			c-6.8,4.2-10.6,8.5-13.3,16.1c-2.7,7.6-4.4,15.3-4.7,20.5c-0.2,5.2-0.2,22.7-0.2,22.7s0,17.5,0.2,22.7c0.2,5.2,2,12.9,4.7,20.5
			c2.7,7.6,6.4,11.9,13.3,16.1c3.3,2,7.7,3.1,11.4,3.7c-0.1,0-4.7-1.1-11.7-5.3c-7-4.3-10.6-11.1-12.9-18.6
			c-2.3-7.6-3.3-13.2-3.6-17.8c-0.3-5.2-0.3-21.3-0.3-21.3s0-16,0.3-21.3C37.3,99.4,38.3,93.9,40.6,86.3z"/>
		
			<linearGradient id="SVGID_00000119077422187648143960000014065601504420695199_" gradientUnits="userSpaceOnUse" x1="99.8535" y1="170.6163" x2="45.989" y2="170.6163">
			<stop  offset="0" style="stop-color:#FFFFFF"/>
			<stop  offset="1" style="stop-color:#000000"/>
		</linearGradient>
		<path style="opacity:5.000000e-02;fill:url(#SVGID_00000119077422187648143960000014065601504420695199_);" d="M89.1,182
			c0,0,6-0.1,12.3-0.1l-1.5-14c-11.7-2.3-46.1-9.1-52.9-12.4c0,0,0,0-0.1,0l3.3,5.8c6.4,6.1,11.9,14.1,14.1,17.1
			c1.4,2,2.3,3.8,2.5,5.1v0c5.1,0.8,20.7,1.6,34.9,2.3l-0.3-3.1C94.2,182.3,89.1,182,89.1,182z"/>
		
			<linearGradient id="SVGID_00000170995647109734051350000000961201311498687129_" gradientUnits="userSpaceOnUse" x1="93.4868" y1="125.3021" x2="44.7864" y2="125.3021">
			<stop  offset="0" style="stop-color:#FFFFFF"/>
			<stop  offset="1" style="stop-color:#000000"/>
		</linearGradient>
		<path style="opacity:5.000000e-02;fill:url(#SVGID_00000170995647109734051350000000961201311498687129_);" d="M52.9,156.4
			c-6.8-2.2-7.6-4.8-7.7-5.2c0.4-0.4,0.6-1.2,0.5-2.8c-0.3-4.8-1.3-15.3-1.3-23.1c0.1-7.8,1.1-18.4,1.3-23.1
			c0.1-1.6-0.1-2.4-0.5-2.8h0c0.1-0.4,0.8-3,7.7-5.2c9-2.9,34.9-8.7,45.9-11.2v84.5C87.8,165.1,62,159.3,52.9,156.4z"/>
		
			<linearGradient id="SVGID_00000138556970646446964840000003588172705025935292_" gradientUnits="userSpaceOnUse" x1="99.8525" y1="79.9884" x2="45.989" y2="79.9884">
			<stop  offset="0" style="stop-color:#FFFFFF"/>
			<stop  offset="1" style="stop-color:#000000"/>
		</linearGradient>
		<path style="opacity:5.000000e-02;fill:url(#SVGID_00000138556970646446964840000003588172705025935292_);" d="M99.9,82.7l1.5-14
			c-6.3-0.1-12.3-0.1-12.3-0.1s5.1-0.3,12.3-0.6l0.3-3.1c-14.2,0.6-29.7,1.5-34.8,2.3v0c-0.3,1.3-1.1,3-2.5,5.1
			c-2.1,3.1-7.7,11-14.1,17.1L47,95.1c0,0,0,0,0.1,0C53.8,91.8,88.1,85,99.9,82.7z"/>
		<path class="st18" d="M340.5,125.3c0,17-2.7,34.3-4.4,38c-1.7,3.7-3,6.3-9.7,5.8c-6.7-0.5-24.1-1.8-29.2-2.5
			c-5.1-0.7-9.7-2.2-9.1-7c0.6-4.8,2.5-22.1,2.5-34.2c0-12.1-1.9-29.4-2.5-34.2c-0.6-4.8,4-6.3,9.1-7c5.1-0.7,22.5-2.1,29.2-2.5
			c6.7-0.5,8,2.1,9.7,5.8C337.8,91,340.5,108.3,340.5,125.3z"/>
		<path class="st19" d="M327.9,167.8c-0.4,0-0.9,0-1.4-0.1c-7-0.5-24.1-1.8-29.1-2.5c-7.5-1.1-8.3-3.3-8-5.5
			c0.5-4.1,2.6-21.8,2.6-34.4c0-12.6-2-30.3-2.6-34.4c-0.3-2.2,0.5-4.5,8-5.5c5-0.7,22.1-2,29.1-2.5c0.5,0,1-0.1,1.4-0.1
			c4.7,0,5.6,2,7,5.1c1.5,3.3,4.3,20,4.3,37.4s-2.8,34.1-4.3,37.4C333.5,165.8,332.6,167.8,327.9,167.8z"/>
		<path class="st18" d="M115.1,125.3c0,30.7,4.6,42.9,6.9,47.8c2.3,4.9,5.5,4.5,9.3,4.3c3.8-0.2,10.1-1.3,19.7-3.7
			c9.7-2.4,23.8-5.7,25.3-6c1.5-0.3,1.2-1.6,1.2-1.6c-0.9-5.3-4-20.8-4-40.8s3.1-35.5,4-40.8c0,0,0.3-1.3-1.2-1.6
			c-1.5-0.3-15.6-3.6-25.3-6c-9.7-2.4-16-3.5-19.7-3.7c-3.8-0.2-7-0.6-9.3,4.3C119.7,82.4,115.1,94.6,115.1,125.3z"/>
		<path class="st19" d="M118.8,125.3c0,21.7,1.7,32.8,5.2,43.1c1.3,4,2.8,5.7,6.7,5.7c3.7,0,9.9-0.3,19.6-2.2
			c6.9-1.4,15.9-3.8,21.1-5c2.1-0.5,3-2.6,2.6-4.9c-1.2-6.8-3.3-18.6-3.3-36.7c0-18.1,2.1-29.9,3.3-36.7c0.4-2.4-0.5-4.4-2.6-4.9
			c-5.3-1.2-14.2-3.7-21.1-5c-9.8-1.9-15.9-2.2-19.6-2.2c-3.9,0-5.4,1.6-6.7,5.7C120.6,92.5,118.8,103.6,118.8,125.3z"/>
		<path class="st19" d="M122,173.1c-2.3-4.9-6.9-17.1-6.9-47.8c0-30.7,4.6-42.9,6.9-47.8c0.3-0.6,0.6-1.1,0.9-1.6
			c-2.1-0.2-7.7,4-10,10.1c-2.3,6.1-5,20.2-5,39.3c-0.1,19.1,2.7,33.2,5,39.3c2.3,6.1,7.8,10.3,10,10.1
			C122.6,174.3,122.3,173.7,122,173.1z"/>
		<path class="st20" d="M124,82.2c-3.4,10.3-5.2,21.5-5.2,43.1c0,21.7,1.7,32.8,5.2,43.1c1.3,4,2.8,5.7,6.7,5.7c2,0,4.6-0.1,8.1-0.4
			c4.5-14.3,6.7-30.2,7.1-48.4c0.5-26-7.5-41.9-10.2-48.7c-2-0.1-3.7-0.2-5-0.2C126.9,76.5,125.4,78.1,124,82.2z"/>
		<path class="st18" d="M244.8,80.4c11.1,0,28.9-0.3,41-2.6c14.5-2.9,22.7-7.3,22.7-7.3s-54.8-2-72.7-2.5l4.3,9.9
			C240.1,77.9,241.3,80.4,244.8,80.4z"/>
		<path class="st19" d="M244.8,79.9c-2.1,0-3.6-2.1-3.6-2.2l-3.7-8.9c16.7,0.5,57.4,2.3,65,2.5c-2.5,1.2-6.8,3.8-18.4,6
			C271.3,80,253.2,79.9,244.8,79.9L244.8,79.9z"/>
		<path class="st18" d="M229.3,80.5c-14,0.8-37.4-0.1-58.9-4.6c-28-5.8-31.7-9.1-31.7-9.1s68.6,0.8,88.5,1l4.5,10.2
			C231.8,77.9,232.8,80.3,229.3,80.5z"/>
		<path class="st19" d="M231.2,78.1l-4.1-9.2l-73.5-0.6l0.4,3.6c4.2,1.1,9.7,2.4,16.6,3.8c14.8,3.1,32.6,4.8,48.8,4.8
			c3.6,0,7.1-0.2,10.1-0.3c1.2-0.1,1.5-0.4,1.7-0.8C231.4,78.7,231.2,78.1,231.2,78.1z"/>
		<path class="st21" d="M240.2,75.3l1,2.4c0,0,1.4,2.2,3.6,2.2h0c8.4,0,26.4,0.1,39.3-2.4c2.4-0.5,4.5-1,6.4-1.5
			C274.9,75.8,257.3,75.5,240.2,75.3z"/>
		<path class="st21" d="M170.4,75.7c14.8,3.1,32.6,4.8,48.8,4.8c3.6,0,7.1-0.2,10.1-0.3c1.2-0.1,1.5-0.4,1.7-0.8
			c0.3-0.6,0.1-1.3,0.1-1.3l-1.3-2.9c-27.2-0.3-52.1-0.6-64.9-0.7C166.7,74.9,168.5,75.3,170.4,75.7z"/>
		<path class="st18" d="M244.8,170.2c11.1,0,28.9,0.3,41,2.6c14.5,2.9,22.7,7.3,22.7,7.3s-54.8,2-72.7,2.5l4.3-9.9
			C240.1,172.7,241.3,170.2,244.8,170.2z"/>
		<path class="st19" d="M244.8,170.7c-2.1,0-3.6,2.1-3.6,2.2l-3.7,8.9c16.7-0.5,57.4-2.3,65-2.5c-2.5-1.2-6.8-3.8-18.4-6
			C271.3,170.6,253.2,170.7,244.8,170.7L244.8,170.7z"/>
		<path class="st18" d="M229.3,170.1c-14-0.8-37.4,0.1-58.9,4.6c-28,5.8-31.7,9.1-31.7,9.1s68.6-0.8,88.5-1l4.5-10.2
			C231.8,172.7,232.8,170.3,229.3,170.1z"/>
		<path class="st19" d="M231.2,172.6l-4.1,9.2l-73.5,0.6l0.4-3.6c4.2-1.1,9.7-2.4,16.6-3.8c14.8-3.1,32.6-4.8,48.8-4.8
			c3.6,0,7.1,0.2,10.1,0.3c1.2,0.1,1.5,0.4,1.7,0.8C231.4,171.9,231.2,172.5,231.2,172.6z"/>
		<path class="st21" d="M327.9,82.8c-0.4,0-0.9,0-1.4,0.1c-7,0.5-24.1,1.8-29.1,2.5c-7.5,1.1-8.3,3.3-8,5.5
			c0.5,3.7,2.2,18.7,2.5,30.9c18.1,2,33.4,4.5,47.1,7.4c0-1.3,0-2.6,0-3.9c0-17.4-2.8-34.1-4.3-37.4
			C333.5,84.8,332.6,82.8,327.9,82.8z"/>
		<path class="st21" d="M171.5,83.7c-5.3-1.2-14.2-3.7-21.1-5c-9.8-1.9-15.9-2.2-19.6-2.2c-3.9,0-5.4,1.6-6.7,5.7
			c-3.4,10.2-5.2,21.3-5.2,42.7c14.1-2.5,31.7-5,52.1-6.5c0.4-14.2,2.2-23.9,3.2-29.8C174.5,86.3,173.6,84.2,171.5,83.7z"/>
		<path class="st22" d="M233,169.2c-3.7-0.2-12.5-0.3-19.2-0.2c-6.3,0.1-23,1.1-31.6,2.2c-7.8,1-22.9,4.3-29.9,6
			c-7.6,1.8-16.9,4.4-18.3,6.7l-2.3,4.2h0.4l2.2-4.1c1-1.7,7.4-4,18.1-6.5c6.9-1.6,22.1-5,29.8-6c8.6-1.1,25.3-2.1,31.6-2.2
			c6.7-0.1,15.5,0,19.2,0.2c1.9,0.1,2.6,0.6,2.9,1c0.3,0.5,0.2,0.9,0.2,0.9l-4.9,11.2l0,0.1l2.6,4.4l-0.1,1h0.4l0.1-1l-2.6-4.3
			l4.9-11.2c0,0,0.2-0.6-0.2-1.2C235.7,169.7,234.6,169.3,233,169.2z"/>
		<path class="st22" d="M233.7,63.5l-2.6,4.4l5,11.3c0,0,0.2,0.4-0.1,0.9c-0.3,0.4-1,0.9-2.9,1c-3.7,0.2-12.5,0.3-19.2,0.2
			c-6.3-0.1-23-1.1-31.6-2.2c-7.7-1-22.9-4.3-29.8-6c-10.6-2.5-17.1-4.8-18.1-6.5l-2.2-4.1h-0.4l0.9,1.7l1.4,2.6
			c1.4,2.2,10.7,4.9,18.3,6.6c6.9,1.6,22.1,5,29.9,6c8.6,1.1,25.3,2.1,31.6,2.2c1.7,0,3.5,0,5.3,0c5.5,0,11.1-0.1,13.9-0.3
			c1.6-0.1,2.7-0.5,3.2-1.2c0.4-0.6,0.2-1.2,0.2-1.2l-4.9-11.2l2.6-4.3l-0.1-1l-0.4,0L233.7,63.5z"/>
		<path class="st23" d="M233.8,63.5l-2.6,4.3l0,0l5,11.3c0,0,0.2,0.5-0.2,1c-0.3,0.4-1,1-3,1.1c-3.7,0.2-12.5,0.3-19.2,0.2
			c-6.3-0.1-23-1.1-31.6-2.2c-7.7-1-22.9-4.3-29.8-6c-10.8-2.6-17.1-4.8-18.1-6.5l-1.4-2.5l-0.8-1.6h-0.2l0.9,1.6l1.4,2.6
			c1.3,2.2,10.7,4.8,18.2,6.6c6.9,1.6,22.1,5,29.8,6c8.6,1.1,25.3,2.1,31.6,2.2c1.7,0,3.5,0,5.3,0c5.5,0,11.1-0.1,13.9-0.3
			c1.6-0.1,2.6-0.5,3.1-1.2c0.4-0.6,0.2-1.1,0.2-1.1l-4.9-11.2l2.6-4.3l0,0l-0.1-1l-0.1,0L233.8,63.5z"/>
		<path class="st23" d="M233,169.3c-3.7-0.2-12.5-0.3-19.2-0.2c-6.3,0.1-23,1.1-31.6,2.2c-7.8,1-22.9,4.3-29.8,6
			c-7.6,1.8-16.9,4.4-18.2,6.6l-1.4,2.5l-0.9,1.6h0.2l0.8-1.6l1.4-2.5c1-1.7,7.3-4,18.1-6.5c6.9-1.6,22.1-5,29.8-6
			c8.6-1.1,25.3-2.1,31.6-2.2c6.7-0.1,15.5,0,19.2,0.2c1.5,0.1,2.6,0.5,3,1.1c0.3,0.5,0.2,1,0.2,1l-4.9,11.2l0,0l2.6,4.3l-0.1,1h0.1
			l0.1-1l0,0l-2.6-4.3l4.9-11.2c0,0,0.2-0.6-0.2-1.1C235.6,169.8,234.6,169.4,233,169.3z"/>
		
			<linearGradient id="SVGID_00000116927559119980805160000014487299955233682850_" gradientUnits="userSpaceOnUse" x1="220.8623" y1="187.4524" x2="220.8623" y2="188.4818">
			<stop  offset="0" style="stop-color:#F3F5F7"/>
			<stop  offset="1" style="stop-color:#86898B"/>
		</linearGradient>
		
			<rect x="214.7" y="187.4" style="fill:url(#SVGID_00000116927559119980805160000014487299955233682850_);" width="12.4" height="1"/>
		
			<linearGradient id="SVGID_00000105414388378639802980000009700349223037704599_" gradientUnits="userSpaceOnUse" x1="220.8623" y1="62.193" x2="220.8623" y2="63.2255">
			<stop  offset="0" style="stop-color:#F3F5F7"/>
			<stop  offset="1" style="stop-color:#86898B"/>
		</linearGradient>
		
			<rect x="214.7" y="62.1" style="fill:url(#SVGID_00000105414388378639802980000009700349223037704599_);" width="12.4" height="1"/>
		<path class="st19" d="M150.1,67.9l-1.1-2.3h-3.5l1.2,2.4c0,0,0.9,0.6,2.1,0.6C150,68.6,150.1,67.9,150.1,67.9z"/>
		<path class="st19" d="M147.5,182c-1.5,0-1.6,0.4-1.6,0.4l-0.6,2.7h3.6l0.2-2.4C149.2,182.7,149.1,182,147.5,182z"/>
		<path class="st26" d="M45.7,100.3c-4.1,0.2-4.4,10-4.6,12.7c-0.2,3-0.5,9.2-0.5,12.3c0,3.1,0.4,9.5,0.5,12.3
			c0.1,2.7,0.5,12.5,4.6,12.7c0.1-0.5,0.1-1.1,0.1-1.9c-0.3-4.8-1.3-15.3-1.3-23.1c0.1-7.8,1.1-18.4,1.3-23.1
			C45.8,101.4,45.7,100.7,45.7,100.3z"/>
		<path class="st27" d="M124,74.6c-2.3-1-5.6-1.8-8.9-2.4c-4.5-0.7-14.8-1-21.7-0.8c-5.7,0.2-24.6,1.6-30,2.1
			c-0.1,0.1-0.2,0.2-0.3,0.4c4.9-0.4,24.5-1.9,30.3-2.1c6.7-0.2,17.2,0.1,21.6,0.8c3.2,0.5,6.4,1.4,8.7,2.3
			C123.8,74.8,123.9,74.7,124,74.6z"/>
		<path class="st23" d="M123.9,74.7c-2.3-0.9-5.5-1.8-8.8-2.3c-4.5-0.7-14.8-1-21.7-0.8c-5.7,0.2-24.9,1.7-30.1,2.1
			c0,0-0.1,0.1-0.1,0.1c5.1-0.4,24.4-1.9,30.2-2.1c6.9-0.2,17.2,0.1,21.6,0.8c3.2,0.5,6.5,1.4,8.7,2.3
			C123.9,74.7,123.9,74.7,123.9,74.7z"/>
		<path class="st22" d="M123.7,175.8c-2.3,0.9-5.4,1.8-8.7,2.3c-4.4,0.7-14.9,1-21.6,0.8c-5.8-0.2-25.4-1.7-30.3-2.1
			c0.1,0.1,0.2,0.3,0.3,0.4c5.3,0.4,24.3,1.9,30,2.1c1.5,0,3.1,0.1,4.8,0.1c6.2,0,13.4-0.3,16.9-0.8c3.3-0.5,6.6-1.4,8.9-2.4
			C123.9,175.9,123.8,175.8,123.7,175.8z"/>
		<path class="st23" d="M123.8,175.8c-2.3,0.9-5.5,1.8-8.7,2.3c-4.4,0.7-14.8,1-21.6,0.8c-5.8-0.2-25.1-1.7-30.2-2.1
			c0,0,0.1,0.1,0.1,0.1c5.2,0.4,24.3,1.9,30.1,2.1c1.5,0,3.1,0.1,4.8,0.1c6.2,0,13.3-0.3,16.8-0.8c3.3-0.5,6.5-1.4,8.8-2.3
			C123.9,175.9,123.9,175.9,123.8,175.8z"/>
		<path class="st23" d="M42.8,95.1c0,0,3.8-13.1,9.4-20.9c5.5-7.8,11.4-9.3,13.5-9.3c2.1,0.1,1.5,3-1.4,7.3
			C61.5,76.4,51.9,90,42.8,95.1z"/>
		
			<linearGradient id="SVGID_00000095301177173573229170000003154435110497840008_" gradientUnits="userSpaceOnUse" x1="43.2906" y1="79.8746" x2="66.7602" y2="79.8746">
			<stop  offset="0" style="stop-color:#57555A"/>
			<stop  offset="1" style="stop-color:#302F32"/>
		</linearGradient>
		<path style="fill:url(#SVGID_00000095301177173573229170000003154435110497840008_);" d="M43.3,94.5c0.8-2.7,4.4-13.5,9.1-20.2
			c5.2-7.2,10.7-9.1,13.2-9.1l0.1,0c0.4,0,0.7,0.2,0.9,0.5c0.4,0.8,0,2.9-2.5,6.4C56.5,83.2,49.3,91,43.3,94.5z"/>
		
			<linearGradient id="SVGID_00000131356850994352123210000002147181211128658110_" gradientUnits="userSpaceOnUse" x1="43.2906" y1="79.8746" x2="66.6539" y2="79.8746">
			<stop  offset="0" style="stop-color:#706E73"/>
			<stop  offset="1" style="stop-color:#49484B"/>
		</linearGradient>
		<path style="fill:url(#SVGID_00000131356850994352123210000002147181211128658110_);" d="M66.6,65.7c-0.2-0.3-0.4-0.5-0.9-0.5
			l-0.1,0c-2.5,0-8.1,1.9-13.2,9.1c-4.8,6.7-8.3,17.5-9.1,20.2c1-0.6,2-1.3,3-2.1c1.5-3.5,5.7-13.3,9.2-17.6
			C59.2,70.1,63.4,67.2,66.6,65.7C66.6,65.7,66.6,65.7,66.6,65.7z"/>
		
			<linearGradient id="SVGID_00000121275737444019602980000000948693049043475629_" gradientUnits="userSpaceOnUse" x1="50.0176" y1="83.1297" x2="48.1116" y2="90.3722">
			<stop  offset="0" style="stop-color:#474747"/>
			<stop  offset="3.997359e-03" style="stop-color:#4C4C4C"/>
			<stop  offset="2.550068e-02" style="stop-color:#626262"/>
			<stop  offset="5.090187e-02" style="stop-color:#737373"/>
			<stop  offset="8.232994e-02" style="stop-color:#7E7E7E"/>
			<stop  offset="0.1264" style="stop-color:#858585"/>
			<stop  offset="0.2488" style="stop-color:#878787"/>
			<stop  offset="0.3574" style="stop-color:#D3D3D3"/>
			<stop  offset="0.4456" style="stop-color:#F3F3F3"/>
			<stop  offset="0.483" style="stop-color:#FFFFFF"/>
			<stop  offset="0.5577" style="stop-color:#FFFFFF"/>
			<stop  offset="0.7206" style="stop-color:#D3D3D3"/>
			<stop  offset="0.8699" style="stop-color:#878787"/>
		</linearGradient>
		<path style="fill:url(#SVGID_00000121275737444019602980000000948693049043475629_);" d="M46.4,86.6c0.5-1.9,2.1-3.5,4.1-3.6
			c2.1-0.1,2,1.7,1.2,3.3c-0.8,1.6-3,3.5-4.2,3.5C46.4,89.7,45.9,88.5,46.4,86.6z"/>
		
			<linearGradient id="SVGID_00000040567070505353202120000014789351265395289778_" gradientUnits="userSpaceOnUse" x1="53.9309" y1="75.5517" x2="51.5168" y2="82.7307">
			<stop  offset="0" style="stop-color:#474747"/>
			<stop  offset="3.997359e-03" style="stop-color:#4C4C4C"/>
			<stop  offset="2.550068e-02" style="stop-color:#626262"/>
			<stop  offset="5.090187e-02" style="stop-color:#737373"/>
			<stop  offset="8.232994e-02" style="stop-color:#7E7E7E"/>
			<stop  offset="0.1264" style="stop-color:#858585"/>
			<stop  offset="0.2488" style="stop-color:#878787"/>
			<stop  offset="0.3574" style="stop-color:#D3D3D3"/>
			<stop  offset="0.4456" style="stop-color:#F3F3F3"/>
			<stop  offset="0.483" style="stop-color:#FFFFFF"/>
			<stop  offset="0.5577" style="stop-color:#FFFFFF"/>
			<stop  offset="0.7206" style="stop-color:#D3D3D3"/>
			<stop  offset="0.8699" style="stop-color:#878787"/>
		</linearGradient>
		<path style="fill:url(#SVGID_00000040567070505353202120000014789351265395289778_);" d="M50.7,78c1.1-1.9,2.7-3.1,4.4-2.8
			c1.7,0.3,0.8,2.6-0.2,3.9c-1,1.3-3,2.4-4.3,2.4C49.4,81.4,50,79,50.7,78z"/>
		
			<linearGradient id="SVGID_00000164495923296838651590000005257689652600542117_" gradientUnits="userSpaceOnUse" x1="61.5522" y1="66.1281" x2="57.1685" y2="74.3873">
			<stop  offset="0" style="stop-color:#474747"/>
			<stop  offset="3.997359e-03" style="stop-color:#4C4C4C"/>
			<stop  offset="2.550068e-02" style="stop-color:#626262"/>
			<stop  offset="5.090187e-02" style="stop-color:#737373"/>
			<stop  offset="8.232994e-02" style="stop-color:#7E7E7E"/>
			<stop  offset="0.1264" style="stop-color:#858585"/>
			<stop  offset="0.2488" style="stop-color:#878787"/>
			<stop  offset="0.3574" style="stop-color:#D3D3D3"/>
			<stop  offset="0.4456" style="stop-color:#F3F3F3"/>
			<stop  offset="0.483" style="stop-color:#FFFFFF"/>
			<stop  offset="0.5577" style="stop-color:#FFFFFF"/>
			<stop  offset="0.7206" style="stop-color:#D3D3D3"/>
			<stop  offset="0.8699" style="stop-color:#878787"/>
		</linearGradient>
		<path style="fill:url(#SVGID_00000164495923296838651590000005257689652600542117_);" d="M57.5,69.2c1.6-1.2,4.8-2.9,6.2-2.5
			c1.4,0.4-0.8,2.6-2.4,3.9c-1.7,1.4-5.1,2.7-5.8,2.7C54.8,73.4,54.3,71.6,57.5,69.2z"/>
		
			<linearGradient id="SVGID_00000174595446524366435000000007106097646559390643_" gradientUnits="userSpaceOnUse" x1="52.4048" y1="77.2122" x2="66.5406" y2="77.2122">
			<stop  offset="0" style="stop-color:#706E73"/>
			<stop  offset="1" style="stop-color:#49484B"/>
		</linearGradient>
		<path style="fill:url(#SVGID_00000174595446524366435000000007106097646559390643_);" d="M64.2,72c1.3-1.9,2-3.4,2.4-4.5
			c-2,1.4-5.4,4-8.3,8c-2.9,3.9-4.8,8.5-5.9,11.3C56.1,83,60.1,78,64.2,72z"/>
		<path class="st27" d="M52.7,80.9c0.9-0.4,1.7-1.1,2.2-1.8c0.9-1.2,1.7-3,0.7-3.7c-0.5,0.4-1.3,1.2-2,2.5
			C53,79.1,52.8,80.2,52.7,80.9z"/>
		<path class="st27" d="M51.8,83.3c-0.3,0.4-0.8,1.1-1.3,2.6c-0.3,1-0.5,1.9-0.6,2.6c0.8-0.7,1.5-1.5,1.9-2.2
			C52.3,85.1,52.5,83.9,51.8,83.3z"/>
		<path class="st27" d="M61.3,70.7c1.4-1.1,3.1-2.8,2.9-3.6c-0.7,0.1-1.8,0.4-3,1.5c-1.6,1.4-2.9,3.1-3.1,3.9
			C59.2,72,60.4,71.4,61.3,70.7z"/>
		
			<linearGradient id="SVGID_00000017481353375481072220000012817203824346543038_" gradientUnits="userSpaceOnUse" x1="50.2856" y1="76.3489" x2="68.6709" y2="90.9405">
			<stop  offset="0" style="stop-color:#FFFFFF"/>
			<stop  offset="0.4384" style="stop-color:#000000"/>
		</linearGradient>
		<path style="opacity:0.5;fill:url(#SVGID_00000017481353375481072220000012817203824346543038_);" d="M43.3,94.5
			c0.8-2.7,4.4-13.5,9.1-20.2c5.2-7.2,10.7-9.1,13.2-9.1l0.1,0c0.4,0,0.7,0.2,0.9,0.5c0.4,0.8,0,2.9-2.5,6.4
			C56.5,83.2,49.3,91,43.3,94.5z"/>
		<path class="st35" d="M64.2,72c1.5-2.2,2.3-3.9,2.5-5c-1.8,0.4-4.2,1.4-7.1,3.4c-7.8,5.4-11.1,16.9-12.1,21.1
			C52.5,87.4,58.2,80.7,64.2,72z"/>
		<path class="st23" d="M42.8,155.5c0,0,3.8,13.1,9.4,20.9c5.5,7.8,11.4,9.3,13.5,9.3c2.1-0.1,1.5-3-1.4-7.3
			C61.5,174.2,51.9,160.6,42.8,155.5z"/>
		
			<linearGradient id="SVGID_00000010306066720227098700000006130498782513686146_" gradientUnits="userSpaceOnUse" x1="43.2906" y1="237.2534" x2="66.7602" y2="237.2534" gradientTransform="matrix(1 0 0 -1 0 407.9827)">
			<stop  offset="0" style="stop-color:#57555A"/>
			<stop  offset="1" style="stop-color:#302F32"/>
		</linearGradient>
		<path style="fill:url(#SVGID_00000010306066720227098700000006130498782513686146_);" d="M43.3,156.1c0.8,2.7,4.4,13.5,9.1,20.2
			c5.2,7.2,10.7,9.1,13.2,9.1l0.1,0c0.4,0,0.7-0.2,0.9-0.5c0.4-0.8,0-2.9-2.5-6.4C56.5,167.4,49.3,159.6,43.3,156.1z"/>
		
			<linearGradient id="SVGID_00000111158314746226399320000008467844678574649768_" gradientUnits="userSpaceOnUse" x1="43.2906" y1="237.2534" x2="66.6539" y2="237.2534" gradientTransform="matrix(1 0 0 -1 0 407.9827)">
			<stop  offset="0" style="stop-color:#706E73"/>
			<stop  offset="1" style="stop-color:#49484B"/>
		</linearGradient>
		<path style="fill:url(#SVGID_00000111158314746226399320000008467844678574649768_);" d="M66.6,184.9c-0.2,0.3-0.4,0.4-0.9,0.5
			l-0.1,0c-2.5,0-8.1-1.9-13.2-9.1c-4.8-6.7-8.3-17.5-9.1-20.2c1,0.6,2,1.3,3,2.1c1.5,3.5,5.7,13.3,9.2,17.6
			C59.2,180.5,63.4,183.4,66.6,184.9C66.6,184.9,66.6,184.9,66.6,184.9z"/>
		
			<linearGradient id="SVGID_00000023972122378924077370000009849585579480484521_" gradientUnits="userSpaceOnUse" x1="50.0175" y1="240.5084" x2="48.1117" y2="247.7503" gradientTransform="matrix(1 0 0 -1 0 407.9827)">
			<stop  offset="0" style="stop-color:#474747"/>
			<stop  offset="3.997359e-03" style="stop-color:#4C4C4C"/>
			<stop  offset="2.550068e-02" style="stop-color:#626262"/>
			<stop  offset="5.090187e-02" style="stop-color:#737373"/>
			<stop  offset="8.232994e-02" style="stop-color:#7E7E7E"/>
			<stop  offset="0.1264" style="stop-color:#858585"/>
			<stop  offset="0.2488" style="stop-color:#878787"/>
			<stop  offset="0.3574" style="stop-color:#D3D3D3"/>
			<stop  offset="0.4456" style="stop-color:#F3F3F3"/>
			<stop  offset="0.483" style="stop-color:#FFFFFF"/>
			<stop  offset="0.5577" style="stop-color:#FFFFFF"/>
			<stop  offset="0.7206" style="stop-color:#D3D3D3"/>
			<stop  offset="0.8699" style="stop-color:#878787"/>
		</linearGradient>
		<path style="fill:url(#SVGID_00000023972122378924077370000009849585579480484521_);" d="M46.4,164c0.5,1.9,2.1,3.5,4.1,3.6
			c2.1,0.1,2-1.7,1.2-3.3c-0.8-1.6-3-3.5-4.2-3.5C46.4,160.9,45.9,162.1,46.4,164z"/>
		
			<linearGradient id="SVGID_00000007416843117492856810000001233303905918208685_" gradientUnits="userSpaceOnUse" x1="53.9309" y1="232.9307" x2="51.5168" y2="240.1093" gradientTransform="matrix(1 0 0 -1 0 407.9827)">
			<stop  offset="0" style="stop-color:#474747"/>
			<stop  offset="3.997359e-03" style="stop-color:#4C4C4C"/>
			<stop  offset="2.550068e-02" style="stop-color:#626262"/>
			<stop  offset="5.090187e-02" style="stop-color:#737373"/>
			<stop  offset="8.232994e-02" style="stop-color:#7E7E7E"/>
			<stop  offset="0.1264" style="stop-color:#858585"/>
			<stop  offset="0.2488" style="stop-color:#878787"/>
			<stop  offset="0.3574" style="stop-color:#D3D3D3"/>
			<stop  offset="0.4456" style="stop-color:#F3F3F3"/>
			<stop  offset="0.483" style="stop-color:#FFFFFF"/>
			<stop  offset="0.5577" style="stop-color:#FFFFFF"/>
			<stop  offset="0.7206" style="stop-color:#D3D3D3"/>
			<stop  offset="0.8699" style="stop-color:#878787"/>
		</linearGradient>
		<path style="fill:url(#SVGID_00000007416843117492856810000001233303905918208685_);" d="M50.7,172.6c1.1,1.9,2.7,3.1,4.4,2.8
			c1.7-0.3,0.8-2.6-0.2-3.9c-1-1.3-3-2.4-4.3-2.4C49.4,169.2,50,171.6,50.7,172.6z"/>
		
			<linearGradient id="SVGID_00000002368710002285599640000000108483379303663789_" gradientUnits="userSpaceOnUse" x1="61.552" y1="223.5068" x2="57.1685" y2="231.7654" gradientTransform="matrix(1 0 0 -1 0 407.9827)">
			<stop  offset="0" style="stop-color:#474747"/>
			<stop  offset="3.997359e-03" style="stop-color:#4C4C4C"/>
			<stop  offset="2.550068e-02" style="stop-color:#626262"/>
			<stop  offset="5.090187e-02" style="stop-color:#737373"/>
			<stop  offset="8.232994e-02" style="stop-color:#7E7E7E"/>
			<stop  offset="0.1264" style="stop-color:#858585"/>
			<stop  offset="0.2488" style="stop-color:#878787"/>
			<stop  offset="0.3574" style="stop-color:#D3D3D3"/>
			<stop  offset="0.4456" style="stop-color:#F3F3F3"/>
			<stop  offset="0.483" style="stop-color:#FFFFFF"/>
			<stop  offset="0.5577" style="stop-color:#FFFFFF"/>
			<stop  offset="0.7206" style="stop-color:#D3D3D3"/>
			<stop  offset="0.8699" style="stop-color:#878787"/>
		</linearGradient>
		<path style="fill:url(#SVGID_00000002368710002285599640000000108483379303663789_);" d="M57.5,181.4c1.6,1.2,4.8,2.9,6.2,2.5
			c1.4-0.4-0.8-2.6-2.4-3.9c-1.7-1.4-5.1-2.7-5.8-2.7C54.8,177.2,54.3,179,57.5,181.4z"/>
		
			<linearGradient id="SVGID_00000163762045275203337200000016578034526866408841_" gradientUnits="userSpaceOnUse" x1="52.4048" y1="234.5915" x2="66.5406" y2="234.5915" gradientTransform="matrix(1 0 0 -1 0 407.9827)">
			<stop  offset="0" style="stop-color:#706E73"/>
			<stop  offset="1" style="stop-color:#49484B"/>
		</linearGradient>
		<path style="fill:url(#SVGID_00000163762045275203337200000016578034526866408841_);" d="M64.2,178.6c1.3,1.9,2,3.4,2.4,4.5
			c-2-1.4-5.4-4-8.3-8c-2.9-3.9-4.8-8.5-5.9-11.3C56.1,167.6,60.1,172.6,64.2,178.6z"/>
		<path class="st27" d="M52.7,169.7c0.9,0.4,1.7,1.1,2.2,1.8c0.9,1.2,1.7,3,0.7,3.7c-0.5-0.4-1.3-1.2-2-2.5
			C53,171.5,52.8,170.4,52.7,169.7z"/>
		<path class="st27" d="M51.8,167.3c-0.3-0.4-0.8-1.1-1.3-2.6c-0.3-1-0.5-1.9-0.6-2.6c0.8,0.7,1.5,1.5,1.9,2.2
			C52.3,165.5,52.5,166.7,51.8,167.3z"/>
		<path class="st27" d="M61.3,179.9c1.4,1.1,3.1,2.8,2.9,3.6c-0.7-0.1-1.8-0.4-3-1.5c-1.6-1.4-2.9-3.1-3.1-3.9
			C59.2,178.6,60.4,179.2,61.3,179.9z"/>
		
			<linearGradient id="SVGID_00000181071118573874162070000004149958840363682972_" gradientUnits="userSpaceOnUse" x1="50.2857" y1="233.7279" x2="68.6704" y2="248.3189" gradientTransform="matrix(1 0 0 -1 0 407.9827)">
			<stop  offset="0" style="stop-color:#FFFFFF"/>
			<stop  offset="0.4384" style="stop-color:#000000"/>
		</linearGradient>
		<path style="opacity:0.5;fill:url(#SVGID_00000181071118573874162070000004149958840363682972_);" d="M43.3,156.1
			c0.8,2.7,4.4,13.5,9.1,20.2c5.2,7.2,10.7,9.1,13.2,9.1l0.1,0c0.4,0,0.7-0.2,0.9-0.5c0.4-0.8,0-2.9-2.5-6.4
			C56.5,167.4,49.3,159.6,43.3,156.1z"/>
		<path class="st35" d="M64.2,178.6c1.5,2.2,2.3,3.9,2.5,5c-1.8-0.4-4.2-1.4-7.1-3.4c-7.8-5.4-11.1-16.9-12.1-21.1
			C52.5,163.2,58.2,169.9,64.2,178.6z"/>
	</g>
</g>
</svg>
