<?xml version="1.0" encoding="UTF-8"?>
<svg xmlns="http://www.w3.org/2000/svg" xmlns:xlink="http://www.w3.org/1999/xlink" width="30px" height="30px" viewBox="0 0 30 30" version="1.1">
<g id="surface1">
<path style=" stroke:none;fill-rule:nonzero;fill:rgb(96.470588%,69.411765%,69.411765%);fill-opacity:1;" d="M 0 15 C 0 6.714844 6.714844 0 15 0 C 23.285156 0 30 6.714844 30 15 C 30 23.285156 23.285156 30 15 30 C 6.714844 30 0 23.285156 0 15 Z M 0 15 "/>
<path style=" stroke:none;fill-rule:nonzero;fill:rgb(100%,0%,0.392157%);fill-opacity:1;" d="M 4.546875 14.765625 C 4.550781 8.867188 9.339844 4.085938 15.238281 4.089844 C 21.136719 4.097656 25.917969 8.882812 25.917969 14.78125 C 25.914062 20.679688 21.128906 25.460938 15.230469 25.460938 C 9.328125 25.460938 4.542969 20.671875 4.546875 14.765625 Z M 4.546875 14.765625 "/>
<path style=" stroke:none;fill-rule:nonzero;fill:rgb(81.960784%,0%,0.784314%);fill-opacity:1;" d="M 9.007812 15.238281 C 9.011719 11.800781 11.800781 9.015625 15.234375 9.019531 C 18.671875 9.019531 21.457031 11.808594 21.453125 15.242188 C 21.453125 18.679688 18.667969 21.464844 15.230469 21.464844 C 11.792969 21.464844 9.007812 18.675781 9.007812 15.238281 Z M 9.007812 15.238281 "/>
</g>
</svg>
