<svg xmlns="http://www.w3.org/2000/svg" width="8.766" height="12.457" viewBox="0 0 8.766 12.457">
  <g id="Group_5153" data-name="Group 5153" transform="translate(-2.532 -1.234)">
    <path id="Vector" d="M1.234,2.467A1.234,1.234,0,1,1,2.467,1.234,1.234,1.234,0,0,1,1.234,2.467Z" transform="translate(6.785 1.234)" fill="#003a6f" style="isolation: isolate"/>
    <path id="Vector-2" data-name="Vector" d="M6.725,3.7l1.65.55.39-1.169-1.65-.55L6.09.991A1.243,1.243,0,0,0,5.616.572L4.731.129a1.227,1.227,0,0,0-.85-.092L1.912.529a1.235,1.235,0,0,0-.806.645L0,3.388l1.1.552L2.21,1.726l1.371-.343L2.468,6.531.2,8.09.9,9.106,3.168,7.547a1.226,1.226,0,0,0,.506-.756l.319-1.473L5.545,6.483l.571,2.853,1.21-.242L6.754,6.239a1.234,1.234,0,0,0-.47-.744l-1.339-1,.4-2.4L6.09,3.213A1.237,1.237,0,0,0,6.725,3.7Z" transform="translate(2.532 4.355)" fill="#003a6f" style="isolation: isolate"/>
  </g>
</svg>
