<svg width="17" height="22" viewBox="0 0 17 22" fill="none" xmlns="http://www.w3.org/2000/svg">
<path opacity="0.8" d="M8.26512 0.5C8.53875 0.501322 8.80072 0.61095 8.99374 0.804907C9.18676 0.998864 9.29512 1.26137 9.29512 1.535V3.66V3.691C10.7431 3.93515 12.0578 4.68427 13.0061 5.8055C13.9543 6.92672 14.4748 8.34757 14.4751 9.816C14.3857 12.0745 14.9612 14.3095 16.1301 16.244L16.1651 16.314C16.2053 16.3923 16.2246 16.4796 16.2212 16.5676C16.2179 16.6555 16.1919 16.7411 16.1459 16.8161C16.0999 16.8912 16.0354 16.9531 15.9586 16.996C15.8817 17.0389 15.7951 17.0613 15.7071 17.061H0.821119C0.733115 17.0613 0.646525 17.0389 0.569675 16.996C0.492825 16.9531 0.428298 16.8912 0.382298 16.8161C0.336299 16.7411 0.310373 16.6555 0.307014 16.5676C0.303656 16.4796 0.322976 16.3923 0.363119 16.314L0.398119 16.244C1.56741 14.3096 2.14321 12.0746 2.05412 9.816C2.05396 8.34763 2.57396 6.92668 3.52185 5.80525C4.46974 4.68382 5.78424 3.93441 7.23212 3.69V3.649C7.23212 3.63433 7.23212 3.62 7.23212 3.606V1.535C7.23212 1.26085 7.34089 0.997893 7.53456 0.803851C7.72822 0.609808 7.99097 0.50053 8.26512 0.5ZM10.3351 19.131C10.3351 19.68 10.117 20.2065 9.72883 20.5947C9.34063 20.9829 8.81412 21.201 8.26512 21.201C7.71612 21.201 7.18961 20.9829 6.80141 20.5947C6.41321 20.2065 6.19512 19.68 6.19512 19.131H10.3351Z" fill="white"/>
</svg>
