<svg xmlns="http://www.w3.org/2000/svg" width="25.04" height="25.156" viewBox="0 0 25.04 25.156">
  <g id="Group_5393" data-name="Group 5393" transform="translate(-8495.999 87.156)">
    <g id="Path_6173" data-name="Path 6173" transform="translate(8487.031 -149.749)" fill="#fff" stroke-linecap="round" stroke-linejoin="round" fill-rule="evenodd">
      <path d="M 10.94403457641602 74.85478210449219 C 10.28693389892578 74.85478210449219 9.701764106750488 74.38307189941406 9.521014213562012 73.70766448974609 C 9.346874237060547 73.05695343017578 9.62010383605957 72.41409301757812 10.21710395812988 72.06989288330078 L 17.9822940826416 67.58046722412109 C 18.20883369445801 67.44969177246094 18.46602439880371 67.38065338134766 18.72633361816406 67.38065338134766 C 19.24711418151855 67.38065338134766 19.73689460754395 67.65789794921875 20.0045337677002 68.10420227050781 L 20.00662422180176 68.10768127441406 L 20.00865364074707 68.11119079589844 L 21.77324485778809 71.16487121582031 L 28.22981071472168 67.45047760009766 L 27.53806495666504 66.24957275390625 L 27.06454467773438 65.42752838134766 L 28.01032447814941 65.50151824951172 L 33.04653549194336 65.89555358886719 L 33.77139282226562 65.9522705078125 L 33.45904541015625 66.60883331298828 L 31.28751373291016 71.17333984375 L 30.87861442565918 72.03284454345703 L 30.40292358398438 71.20842742919922 L 29.70979881286621 70.00717926025391 L 21.98068428039551 74.48593902587891 C 21.75216484069824 74.61550903320312 21.4971752166748 74.68276977539062 21.23917388916016 74.68276977539062 C 21.10407447814941 74.68276977539062 20.96956443786621 74.66445159912109 20.83935356140137 74.62831115722656 C 20.45481491088867 74.52158355712891 20.13491439819336 74.27172088623047 19.93828010559082 73.92456817626953 L 18.18099021911621 70.88224792480469 L 11.70435428619385 74.64109039306641 C 11.45934391021729 74.782958984375 11.20368385314941 74.85478210449219 10.94403457641602 74.85478210449219 Z" stroke="none"/>
      <path d="M 27.9713249206543 66 L 28.74502563476562 67.34317779541016 C 28.7912540435791 67.4234619140625 28.80233383178711 67.51926422119141 28.77566528320312 67.60797882080078 C 28.74899291992188 67.69670867919922 28.68692398071289 67.7705078125 28.60408401489258 67.81200408935547 L 21.89969444274902 71.66896057128906 C 21.82229423522949 71.72031402587891 21.72712135314941 71.73736572265625 21.63671493530273 71.71613311767578 C 21.54629516601562 71.69487762451172 21.46868515014648 71.63722229003906 21.42224502563477 71.55679321289062 L 19.57573509216309 68.36135101318359 C 19.29800605773926 67.89822387695312 18.70023918151855 67.74334716796875 18.23255348205566 68.01332855224609 L 10.46684455871582 72.50305938720703 C 9.339374542236328 73.153076171875 10.32590484619141 74.86152648925781 11.4533748626709 74.20864105224609 L 18.07436370849609 70.36605072021484 C 18.23491477966309 70.27481842041016 18.43899345397949 70.33000946044922 18.53167343139648 70.48972320556641 L 20.37243461608887 73.67654418945312 C 20.50229454040527 73.90673828125 20.7183952331543 74.07584381103516 20.97306442260742 74.14652252197266 C 21.22774505615234 74.21720123291016 21.50007438659668 74.18367004394531 21.72999382019043 74.05332183837891 L 29.60212326049805 69.49169158935547 C 29.68240356445312 69.44544982910156 29.7782039642334 69.43434906005859 29.86692428588867 69.46104431152344 C 29.95565414428711 69.48772430419922 30.02945327758789 69.54978179931641 30.07094383239746 69.63262176513672 L 30.83600425720215 70.95854187011719 L 33.00753402709961 66.39402770996094 L 27.9713249206543 66 M 27.97111320495605 64.99999237060547 C 27.9970874786377 64.99999237060547 28.02315521240234 65.00099945068359 28.04932403564453 65.0030517578125 L 33.08553314208984 65.39707946777344 C 33.41378402709961 65.42276000976562 33.70835494995117 65.60838317871094 33.87319564819336 65.89340209960938 C 34.03802490234375 66.17842102050781 34.052001953125 66.52631378173828 33.91055297851562 66.82363128662109 L 31.7390251159668 71.38813781738281 C 31.57939529418945 71.72367095947266 31.24690437316895 71.94303131103516 30.87563323974609 71.95774841308594 C 30.50435638427734 71.97248077392578 30.15554428100586 71.78013610839844 29.96984481811523 71.45831298828125 L 29.52706718444824 70.69094085693359 L 22.23136520385742 74.91854858398438 C 22.2286548614502 74.92012786865234 22.22592353820801 74.92169189453125 22.22319412231445 74.92324066162109 C 21.92372512817383 75.093017578125 21.58345413208008 75.18276977539062 21.23917388916016 75.18276977539062 C 21.05891418457031 75.18276977539062 20.87940406799316 75.15831756591797 20.70565414428711 75.11009979248047 C 20.19351959228516 74.96797180175781 19.76731109619141 74.63555908203125 19.50479125976562 74.17374420166016 L 17.99863433837891 71.56620788574219 L 11.95532417297363 75.07353210449219 C 11.63276481628418 75.26032257080078 11.29279518127441 75.35478210449219 10.94403457641602 75.35478210449219 C 10.06096267700195 75.35478210449219 9.277175903320312 74.73061370849609 9.038005828857422 73.83692169189453 C 8.803592681884766 72.96099090576172 9.16839599609375 72.09735870361328 9.967384338378906 71.63673400878906 L 17.73203468322754 67.14759826660156 C 18.03475379943848 66.97285461425781 18.37838363647461 66.88065338134766 18.72633361816406 66.88065338134766 C 19.42178344726562 66.88065338134766 20.07587432861328 67.25095367431641 20.4333438873291 67.84705352783203 C 20.43612480163574 67.85169219970703 20.43886375427246 67.85633850097656 20.44157409667969 67.86102294921875 L 21.95648384094238 70.48262023925781 L 27.54684638977051 67.26654052734375 L 27.10480499267578 66.49913787841797 C 26.91958427429199 66.17758941650391 26.92764472961426 65.77993011474609 27.1257438659668 65.46616363525391 C 27.30982208251953 65.17458343505859 27.62989807128906 64.99999237060547 27.97111320495605 64.99999237060547 Z" stroke="none" fill="#92d9ff"/>
    </g>
    <g id="Group_628" data-name="Group 628" transform="translate(8500.671 -86.656)">
      <g id="Group" style="isolation: isolate">
        <path id="Vector" d="M2.383,4.767A2.383,2.383,0,1,1,4.767,2.383,2.383,2.383,0,0,1,2.383,4.767Z" transform="translate(8.216)" fill="#fff"/>
        <path id="Vector_-_Outline" data-name="Vector - Outline" d="M2.383,5.267A2.883,2.883,0,1,1,5.267,2.383,2.887,2.887,0,0,1,2.383,5.267ZM2.383.5A1.883,1.883,0,1,0,4.267,2.383,1.886,1.886,0,0,0,2.383.5Z" transform="translate(8.216)" fill="#fff"/>
      </g>
      <g id="Group-2" data-name="Group" style="isolation: isolate">
        <path id="Vector-2" data-name="Vector" d="M12.994,7.146l3.188,1.063.754-2.259L13.749,4.887,11.767,1.914A2.4,2.4,0,0,0,10.85,1.1L9.141.25A2.37,2.37,0,0,0,7.5.073l-3.805.95A2.386,2.386,0,0,0,2.138,2.269L0,6.546,2.132,7.612,4.27,3.335l2.649-.663-2.15,9.946L.391,15.63l1.35,1.964,4.379-3.013a2.369,2.369,0,0,0,.977-1.46l.616-2.846,3,2.25,1.1,5.512,2.337-.468-1.1-5.514a2.383,2.383,0,0,0-.908-1.437L9.555,8.678l.771-4.63,1.44,2.161A2.389,2.389,0,0,0,12.994,7.146Z" transform="translate(0 6.03)" fill="#fff"/>
        <path id="Vector_-_Outline-2" data-name="Vector - Outline" d="M8.082-.5a2.885,2.885,0,0,1,1.284.3l1.709.854a2.909,2.909,0,0,1,1.108.978l1.887,2.831,3.5,1.167L16.5,8.842,12.836,7.621a2.893,2.893,0,0,1-1.487-1.135l-.738-1.108L10.1,8.46l2.344,1.758a2.879,2.879,0,0,1,1.1,1.738l1.2,6-3.317.665L10.26,12.811,8.038,11.144l-.451,2.084A2.866,2.866,0,0,1,6.4,14.993l-4.792,3.3L-.3,15.5l4.627-3.182L6.26,3.353l-1.646.412L2.356,8.283-.671,6.769,1.691,2.045A2.886,2.886,0,0,1,3.573.537l3.8-.95A2.869,2.869,0,0,1,8.082-.5ZM16.3,6.266l-2.876-.959L11.351,2.191a1.905,1.905,0,0,0-.725-.64L8.918.7a1.889,1.889,0,0,0-1.3-.14l-3.807.95a1.886,1.886,0,0,0-1.23.985L.671,6.322l1.238.619L3.925,2.906l3.652-.913L5.216,12.918l-4.13,2.841L1.87,16.9l3.967-2.729a1.87,1.87,0,0,0,.772-1.152L7.39,9.408l3.776,2.832,1.042,5.208,1.356-.272-1-5.024a1.88,1.88,0,0,0-.717-1.135L9.012,8.9l1.029-6.177,2.141,3.213a1.888,1.888,0,0,0,.971.741l2.714.9Z" transform="translate(0 6.03)" fill="#fff"/>
      </g>
    </g>
  </g>
</svg>
