<svg xmlns="http://www.w3.org/2000/svg" xmlns:xlink="http://www.w3.org/1999/xlink" width="22.209" height="27.156" viewBox="0 0 22.209 27.156">
  <defs>
    <clipPath id="clip-path">
      <rect id="Rectangle_4580" data-name="Rectangle 4580" width="14.913" height="20.602" transform="translate(0 0)" fill="none"/>
    </clipPath>
    <clipPath id="clip-path-2">
      <rect id="Rectangle_4580-2" data-name="Rectangle 4580" width="20.209" height="27.156" transform="translate(-1 -1)" fill="none" stroke="#9865a1" stroke-width="1"/>
    </clipPath>
  </defs>
  <g id="Group_5110" data-name="Group 5110" transform="translate(-898.74 -394)">
    <g id="Group_5109" data-name="Group 5109" transform="translate(898.74 394.998)">
      <g id="Group_5107" data-name="Group 5107" transform="translate(0 0.002)" clip-path="url(#clip-path)">
        <path id="Path_6892" data-name="Path 6892" d="M7.122,14.5c-.012.043-.022.071-.028.1-.12.55-.233,1.1-.362,1.65A2.26,2.26,0,0,1,5.79,17.63q-1.923,1.328-3.85,2.65c-.086.059-.087.059-.145-.027L.34,18.138c-.057-.083-.057-.083.026-.14q1.8-1.241,3.609-2.48a.278.278,0,0,0,.125-.185q.766-3.554,1.535-7.107c.007-.031.011-.063.018-.107a.943.943,0,0,0-.1.013c-.382.095-.764.192-1.147.285a.2.2,0,0,0-.144.117q-.87,1.746-1.743,3.49a.254.254,0,0,1-.04.073.1.1,0,0,1-.067.021c-.018,0-.036-.016-.054-.025L.085,10.954c-.1-.051-.1-.051-.05-.156Q.966,8.934,1.9,7.071a2.341,2.341,0,0,1,1.585-1.28c1.023-.26,2.047-.513,3.071-.77a2.347,2.347,0,0,1,1.685.188c.475.241.954.475,1.427.72a2.318,2.318,0,0,1,.868.794q.731,1.1,1.464,2.2a.293.293,0,0,0,.162.125q1.334.441,2.667.887c.1.033.1.034.067.132L14.083,12.5c-.034.1-.034.1-.139.067l-2.86-.953a2.39,2.39,0,0,1-1.27-.969L9.3,9.868c-.017-.025-.034-.049-.064-.091-.011.047-.02.076-.025.106q-.169,1.012-.338,2.025c-.016.1-.028.2-.049.291a.121.121,0,0,0,.057.14q.7.518,1.389,1.04c.21.158.425.31.622.483a2.343,2.343,0,0,1,.753,1.351q.473,2.373.948,4.746c.022.112.022.112-.088.134l-2.5.5c-.111.022-.114.021-.135-.087q-.455-2.277-.909-4.553a.252.252,0,0,0-.1-.166q-.818-.608-1.632-1.221c-.028-.021-.058-.039-.1-.068m4.457-12.13A2.363,2.363,0,1,0,9.214,4.73a2.377,2.377,0,0,0,2.365-2.362" transform="translate(0 -0.002)" fill="#fff"/>
      </g>
    </g>
    <g id="Group_5108" data-name="Group 5108" transform="translate(901.74 394.998)">
      <g id="Group_5107-2" data-name="Group 5107" transform="translate(0 0.002)" clip-path="url(#clip-path-2)">
        <path id="Path_6892-2" data-name="Path 6892" d="M8.7,17.7c-.015.053-.027.087-.035.122-.147.672-.285,1.345-.442,2.014a2.759,2.759,0,0,1-1.151,1.688q-2.348,1.622-4.7,3.236c-.1.072-.106.072-.177-.032L.415,22.146c-.069-.1-.069-.1.031-.171q2.2-1.515,4.406-3.028a.339.339,0,0,0,.153-.226q.935-4.34,1.875-8.678c.008-.038.013-.077.023-.131a1.151,1.151,0,0,0-.118.016c-.467.116-.933.234-1.4.348a.243.243,0,0,0-.176.143Q4.147,12.55,3.08,14.68a.31.31,0,0,1-.048.089.126.126,0,0,1-.082.026c-.022,0-.044-.019-.067-.03L.1,13.374c-.125-.062-.125-.063-.061-.191Q1.18,10.908,2.317,8.633A2.859,2.859,0,0,1,4.252,7.07C5.5,6.753,6.752,6.444,8,6.13a2.866,2.866,0,0,1,2.057.23c.58.294,1.165.58,1.742.879a2.831,2.831,0,0,1,1.06.97q.893,1.345,1.788,2.688a.358.358,0,0,0,.2.153q1.629.539,3.256,1.083c.122.041.122.041.082.161L17.2,15.26c-.041.124-.042.124-.17.082l-3.492-1.164A2.919,2.919,0,0,1,11.982,13q-.315-.474-.632-.946c-.02-.03-.042-.059-.078-.111-.014.057-.025.093-.031.129q-.207,1.236-.412,2.472c-.02.119-.034.238-.06.356a.148.148,0,0,0,.069.171q.85.632,1.7,1.27c.256.193.519.379.759.59a2.861,2.861,0,0,1,.919,1.649q.577,2.9,1.158,5.8c.027.136.027.137-.108.164l-3.047.611c-.136.027-.139.025-.165-.107q-.556-2.78-1.11-5.56a.308.308,0,0,0-.127-.2q-1-.743-1.993-1.49c-.034-.025-.07-.047-.123-.083M14.138,2.892A2.886,2.886,0,1,0,11.25,5.775a2.9,2.9,0,0,0,2.888-2.884" transform="translate(0 -0.002)" fill="#fff" stroke="#9865a1" stroke-width="1"/>
      </g>
    </g>
  </g>
</svg>
