<svg xmlns="http://www.w3.org/2000/svg" width="23.039" height="25.899" viewBox="0 0 23.039 25.899">
  <g id="Group_5163" data-name="Group 5163" transform="translate(-5570.616 -3860)">
    <path id="Path_6167" data-name="Path 6167" d="M16.979,16.487l1.861-1.867a.365.365,0,0,0-.515-.515l-1.867,1.867a.366.366,0,1,0,.521.515Z" transform="translate(5556.1 3848.575)" fill="#fff" fill-rule="evenodd"/>
    <path id="Path_6168" data-name="Path 6168" d="M75.368,14.59l1.87,1.867a.365.365,0,0,0,.515-.515l-1.867-1.867a.365.365,0,0,0-.518.515Z" transform="translate(5514.128 3848.606)" fill="#fff" fill-rule="evenodd"/>
    <path id="Path_6169" data-name="Path 6169" d="M44.825,5.731h2.64a.365.365,0,1,0,0-.731h-2.64a.365.365,0,1,0,0,.731Z" transform="translate(5536.077 3855)" fill="#fff" fill-rule="evenodd"/>
    <rect id="Rectangle_4431" data-name="Rectangle 4431" width="1.191" height="0.731" transform="translate(5588.854 3865.19) rotate(-45)" fill="#fff"/>
    <rect id="Rectangle_4432" data-name="Rectangle 4432" width="0.731" height="1.191" transform="translate(5581.856 3861.404)" fill="#fff"/>
    <rect id="Rectangle_4433" data-name="Rectangle 4433" width="0.731" height="1.191" transform="translate(5574.232 3864.865) rotate(-45)" fill="#fff"/>
    <path id="Path_6171" data-name="Path 6171" d="M27.811,17.859a7.536,7.536,0,0,1,6.04,12.031l1.757.141A9.08,9.08,0,1,0,22.657,32.87q.755-.431,1.516-.863a7.536,7.536,0,0,1,3.638-14.148Z" transform="translate(5554.411 3846.944)" fill="#fff" fill-rule="evenodd"/>
    <path id="Path_6172" data-name="Path 6172" d="M49.153,35.512l-.771-5.042L47.6,35.512a.782.782,0,0,0,1.553,0Z" transform="translate(5533.84 3836.856)" fill="#fff" fill-rule="evenodd"/>
    <path id="Path_6173" data-name="Path 6173" d="M18.233,68.013,10.467,72.5a.985.985,0,0,0,.987,1.706l6.621-3.843a.337.337,0,0,1,.457.124l1.841,3.187a1,1,0,0,0,1.358.377L29.6,69.492a.337.337,0,0,1,.469.141l.765,1.326,2.172-4.565L27.971,66l.774,1.343a.337.337,0,0,1-.141.469l-6.7,3.857a.337.337,0,0,1-.477-.112l-1.847-3.2A.989.989,0,0,0,18.233,68.013Z" transform="translate(5560.647 3811.545)" fill="#fff" fill-rule="evenodd"/>
  </g>
</svg>
