<svg xmlns="http://www.w3.org/2000/svg" xmlns:xlink="http://www.w3.org/1999/xlink" width="20.899" height="23.803" viewBox="0 0 20.899 23.803">
  <defs>
    <clipPath id="clip-path">
      <rect id="Rectangle_4577" data-name="Rectangle 4577" width="20.899" height="23.803" transform="translate(0 -2)" fill="#fff"/>
    </clipPath>
  </defs>
  <g id="Group_5062" data-name="Group 5062" transform="translate(0 2)">
    <g id="Group_5062-2" data-name="Group 5062" clip-path="url(#clip-path)">
      <path id="Path_6870" data-name="Path 6870" d="M68.809,363c-.338.357-.338.368.039.629.555.383,1.119.754,1.665,1.148a1.521,1.521,0,0,0,2.154-.353,1.582,1.582,0,0,0-.39-2.211c-.593-.42-1.2-.825-1.795-1.238-.061-.042-.114-.094-.205-.171.274-.031.5-.059.724-.081,1.311-.124,2.622-.244,3.933-.371,1.291-.125,2.582-.256,3.872-.383.482-.048.965-.1,1.448-.138a.814.814,0,0,1,.5,1.482c-.5.338-1.005.664-1.509.994q-3.686,2.419-7.373,4.837a1.674,1.674,0,0,1-1.938.012c-1.148-.719-2.294-1.442-3.445-2.158a.644.644,0,0,0-.311-.087c-.393-.01-.787-.009-1.18,0-.136,0-.185-.042-.185-.18q0-2.369-.014-4.739c0-.136.049-.183.184-.182.918,0,1.835,0,2.753.005a.448.448,0,0,1,.235.073q2.015,1.368,4.023,2.746a1.013,1.013,0,0,1,.429,1.068,1.012,1.012,0,0,1-1.595.677q-.945-.654-1.893-1.3c-.038-.026-.078-.047-.126-.075" transform="translate(-62.25 -345.655)" fill="#fff"/>
      <path id="Path_6871" data-name="Path 6871" d="M302.658,9.179h-4.307c-.276,0-.277,0-.277-.268q0-4.326,0-8.653c0-.262,0-.266.263-.256a9.162,9.162,0,0,1,8.411,6.2,9.483,9.483,0,0,1,.5,2.734c.009.194-.058.246-.244.245-1.449-.006-2.9,0-4.346,0" transform="translate(-286.35 0)" fill="#fff"/>
      <path id="Path_6872" data-name="Path 6872" d="M2.047,350.181c0,1.023,0,2.045,0,3.068,0,.179-.048.237-.231.233-.531-.012-1.062-.01-1.593,0-.173,0-.226-.057-.226-.227q.006-3.087,0-6.175c0-.165.043-.236.221-.233q.816.013,1.632,0c.162,0,.2.061.2.209,0,1.042,0,2.084,0,3.127" transform="translate(0 -333.204)" fill="#fff"/>
      <path id="Path_6873" data-name="Path 6873" d="M13.938,62.558a1.018,1.018,0,0,1,.761.286.949.949,0,0,1,.168.224q.629,0,1.258,0c.479,0,.975,0,1.464,0a1.3,1.3,0,0,1,.706.22l1.226.833.51-.057.254-.029c.167-.02.325-.038.485-.053l1.568-.147c.775-.072,1.576-.147,2.363-.223.816-.079,1.646-.161,2.448-.242l1.422-.141.1-.01c.445-.044.905-.089,1.361-.129a1.56,1.56,0,0,1,.638.078,11.379,11.379,0,0,0,.277-1.924c.017-.284.007-.284-.288-.284q-4.317,0-8.633,0c-.188,0-.242-.051-.241-.24.008-1.449,0-2.9,0-4.346s0-2.911,0-4.366c0-.176-.049-.222-.222-.216a8.726,8.726,0,0,0-3.084.621,9.009,9.009,0,0,0-5.767,7.211,8.322,8.322,0,0,0,.014,2.932c.4,0,.8,0,1.207,0" transform="translate(-12.099 -49.761)" fill="#fff"/>
    </g>
  </g>
</svg>
