<svg xmlns="http://www.w3.org/2000/svg" width="23.107" height="17.026" viewBox="0 0 23.107 17.026">
  <path id="Vector" d="M19.863,4.966l-.751-1.845A5.029,5.029,0,0,0,14.419,0H8.688A5.031,5.031,0,0,0,3.994,3.121L3.243,4.966H.542a.534.534,0,0,0-.525.661L.287,6.691a.54.54,0,0,0,.525.4h.906a2.8,2.8,0,0,0-1,2.128v2.128a2.787,2.787,0,0,0,.722,1.859v2.4a1.432,1.432,0,0,0,1.444,1.419H4.332a1.432,1.432,0,0,0,1.444-1.419V14.189H17.33v1.419a1.432,1.432,0,0,0,1.444,1.419h1.444a1.432,1.432,0,0,0,1.444-1.419v-2.4a2.785,2.785,0,0,0,.722-1.859V9.223a2.8,2.8,0,0,0-1-2.128h.906a.54.54,0,0,0,.525-.4l.271-1.064a.535.535,0,0,0-.526-.661ZM8.688,2.838h5.732a2.167,2.167,0,0,1,2.012,1.338l.9,2.209H5.777l.9-2.209A2.167,2.167,0,0,1,8.688,2.838Zm-5.8,7.09A1.351,1.351,0,0,1,4.332,8.513,2.755,2.755,0,0,1,6.5,10.635c0,.849-1.3.707-2.166.707A1.351,1.351,0,0,1,2.888,9.928Zm13.72.707a2.755,2.755,0,0,1,2.166-2.122,1.351,1.351,0,0,1,1.444,1.414,1.351,1.351,0,0,1-1.444,1.414C17.908,11.342,16.608,11.483,16.608,10.635Z" fill="#fff" style="isolation: isolate"/>
</svg>
