<svg xmlns="http://www.w3.org/2000/svg" width="24.555" height="17.57" viewBox="0 0 24.555 17.57">
  <g id="Group_5160" data-name="Group 5160" transform="translate(0)">
    <g id="Group_5100" data-name="Group 5100" transform="translate(4.957 2.479)">
      <g id="Group" transform="translate(0 0)" style="isolation: isolate">
        <path id="Vector" d="M14.715,3.679l-.556-1.366A3.726,3.726,0,0,0,10.682,0H6.436A3.727,3.727,0,0,0,2.959,2.312L2.4,3.679H.4a.4.4,0,0,0-.389.49l.2.788a.4.4,0,0,0,.389.3h.671A2.073,2.073,0,0,0,.535,6.832V8.409A2.064,2.064,0,0,0,1.07,9.786v1.776a1.061,1.061,0,0,0,1.07,1.051h1.07a1.061,1.061,0,0,0,1.07-1.051V10.511h8.559v1.051a1.061,1.061,0,0,0,1.07,1.051h1.07a1.061,1.061,0,0,0,1.07-1.051V9.786a2.063,2.063,0,0,0,.535-1.377V6.832a2.073,2.073,0,0,0-.738-1.577h.671a.4.4,0,0,0,.389-.3l.2-.788a.4.4,0,0,0-.389-.49ZM6.436,2.1h4.246a1.605,1.605,0,0,1,1.49.991l.666,1.637H4.279l.666-1.637A1.605,1.605,0,0,1,6.436,2.1ZM2.14,7.354a1,1,0,0,1,1.07-1.048,2.041,2.041,0,0,1,1.6,1.572c0,.629-.963.524-1.6.524A1,1,0,0,1,2.14,7.354ZM12.3,7.878a2.041,2.041,0,0,1,1.6-1.572,1,1,0,0,1,1.07,1.048A1,1,0,0,1,13.908,8.4C13.266,8.4,12.3,8.507,12.3,7.878Z" transform="translate(1.24 1.239)" fill="#fff"/>
      </g>
    </g>
    <g id="Group_5159" data-name="Group 5159">
      <g id="Group_5101" data-name="Group 5101">
        <path id="Vector-2" data-name="Vector" d="M14.715,3.679l-.556-1.366A3.726,3.726,0,0,0,10.682,0H6.436A3.727,3.727,0,0,0,2.959,2.312L2.4,3.679H.4a.4.4,0,0,0-.389.49l.2.788a.4.4,0,0,0,.389.3h.671A2.073,2.073,0,0,0,.535,6.832V8.409A2.064,2.064,0,0,0,1.07,9.786v1.776a1.061,1.061,0,0,0,1.07,1.051h1.07a1.061,1.061,0,0,0,1.07-1.051V10.511h8.559v1.051a1.061,1.061,0,0,0,1.07,1.051h1.07a1.061,1.061,0,0,0,1.07-1.051V9.786a2.063,2.063,0,0,0,.535-1.377V6.832a2.073,2.073,0,0,0-.738-1.577h.671a.4.4,0,0,0,.389-.3l.2-.788a.4.4,0,0,0-.389-.49ZM6.436,2.1h4.246a1.605,1.605,0,0,1,1.49.991l.666,1.637H4.279l.666-1.637A1.605,1.605,0,0,1,6.436,2.1ZM2.14,7.354a1,1,0,0,1,1.07-1.048,2.041,2.041,0,0,1,1.6,1.572c0,.629-.963.524-1.6.524A1,1,0,0,1,2.14,7.354ZM12.3,7.878a2.041,2.041,0,0,1,1.6-1.572,1,1,0,0,1,1.07,1.048A1,1,0,0,1,13.908,8.4C13.266,8.4,12.3,8.507,12.3,7.878Z" transform="translate(0)" fill="#fff" style="isolation: isolate"/>
      </g>
      <path id="Vector_-_Outline" data-name="Vector - Outline" d="M6.675.239A3.727,3.727,0,0,0,3.2,2.552L2.642,3.918h-2a.4.4,0,0,0-.389.49l.2.788a.4.4,0,0,0,.389.3h.671A2.073,2.073,0,0,0,.774,7.071V8.648a2.064,2.064,0,0,0,.535,1.377V11.8a1.061,1.061,0,0,0,1.07,1.051h1.07A1.061,1.061,0,0,0,4.519,11.8V10.75h8.559V11.8a1.061,1.061,0,0,0,1.07,1.051h1.07a1.061,1.061,0,0,0,1.07-1.051V10.025a2.063,2.063,0,0,0,.535-1.377V7.071a2.073,2.073,0,0,0-.738-1.577h.671a.4.4,0,0,0,.389-.3l.2-.788a.4.4,0,0,0-.389-.49h-2L14.4,2.552A3.726,3.726,0,0,0,10.921.239H6.675m6.4,4.73H4.519l.666-1.637a1.605,1.605,0,0,1,1.49-.991h4.246a1.6,1.6,0,0,1,1.49.991l.666,1.637M3.971,8.648c-.181,0-.361-.007-.522-.007a1,1,0,0,1-1.07-1.048,1,1,0,0,1,1.07-1.048,2.041,2.041,0,0,1,1.6,1.572c0,.471-.542.53-1.083.53m9.655,0c-.542,0-1.083-.059-1.083-.53a2.041,2.041,0,0,1,1.6-1.572,1,1,0,0,1,1.07,1.048,1,1,0,0,1-1.07,1.048c-.16,0-.341.007-.522.007M6.675-1h4.246a4.96,4.96,0,0,1,4.624,3.085l.242.594h1.168a1.635,1.635,0,0,1,1.591,2.035l-.2.788a1.627,1.627,0,0,1-.4.721,3.256,3.256,0,0,1,.113.849V8.648a3.288,3.288,0,0,1-.535,1.79V11.8a2.3,2.3,0,0,1-2.309,2.29h-1.07a2.305,2.305,0,0,1-2.3-2.1H5.75a2.305,2.305,0,0,1-2.3,2.1H2.379A2.3,2.3,0,0,1,.07,11.8V10.438a3.288,3.288,0,0,1-.535-1.79V7.071a3.255,3.255,0,0,1,.113-.849,1.628,1.628,0,0,1-.4-.721l-.2-.787a1.617,1.617,0,0,1,.292-1.4,1.632,1.632,0,0,1,1.3-.634H1.809l.242-.594A4.961,4.961,0,0,1,6.675-1Zm4.549,4.73a.377.377,0,0,0-.3-.149H6.675a.377.377,0,0,0-.3.149Z" transform="translate(5.958 3.479)" fill="#6daad3"/>
    </g>
  </g>
</svg>
