<svg xmlns="http://www.w3.org/2000/svg" width="321.178" height="142.64" viewBox="0 0 321.178 142.64">
  <g id="Group_5236" data-name="Group 5236" transform="translate(-3.771 -1.275)">
    <path id="Path_7210" data-name="Path 7210" d="M3.858,73V44.39H8.7v12.8l-.365,5.462.156,5.462V72.95H3.858Zm11.458.26a9.341,9.341,0,0,1-4.687-1.144A8.089,8.089,0,0,1,7.4,68.632,13.2,13.2,0,0,1,6.2,62.7a13.2,13.2,0,0,1,1.2-5.93,7.777,7.777,0,0,1,3.281-3.433,9.086,9.086,0,0,1,4.583-1.145,10.64,10.64,0,0,1,5.364,1.3,9.56,9.56,0,0,1,3.7,3.642A10.632,10.632,0,0,1,25.68,62.7a11.152,11.152,0,0,1-1.354,5.566,10.067,10.067,0,0,1-3.7,3.693A10.85,10.85,0,0,1,15.316,73.262Zm-.573-4.11a6.329,6.329,0,0,0,3.125-.78,5.657,5.657,0,0,0,2.187-2.237,7.277,7.277,0,0,0,.833-3.433,6.457,6.457,0,0,0-.833-3.433,5.335,5.335,0,0,0-2.187-2.237,6.192,6.192,0,0,0-3.125-.78,6.331,6.331,0,0,0-3.125.78,5.335,5.335,0,0,0-2.187,2.237A7.275,7.275,0,0,0,8.6,62.7a6.711,6.711,0,0,0,.833,3.433,5.335,5.335,0,0,0,2.187,2.237A6.33,6.33,0,0,0,14.743,69.152Z" transform="translate(0.069 34.291)" fill="#1c3664"/>
    <path id="Path_7211" data-name="Path 7211" d="M18.623,73V44.39h4.843V73Z" transform="translate(11.813 34.291)" fill="#1c3664"/>
    <path id="Path_7212" data-name="Path 7212" d="M33.6,69.713a10.128,10.128,0,0,1-4.635-.989,7,7,0,0,1-3.125-3.017,10.708,10.708,0,0,1-1.094-5.1V48.852h4.843V59.985a6.026,6.026,0,0,0,1.25,4.162A4.53,4.53,0,0,0,34.431,65.5a5.96,5.96,0,0,0,2.969-.676,4.793,4.793,0,0,0,1.979-2.081,7.605,7.605,0,0,0,.729-3.433V48.9h4.843V69.5H40.368V63.938l.833,1.717a7,7,0,0,1-3.073,3.069A11.266,11.266,0,0,1,33.6,69.713Z" transform="translate(16.681 37.84)" fill="#1c3664"/>
    <path id="Path_7213" data-name="Path 7213" d="M49.877,69.782a12.868,12.868,0,0,1-5.989-1.353,10.176,10.176,0,0,1-3.958-3.745,10.478,10.478,0,0,1-1.406-5.41,11.032,11.032,0,0,1,1.354-5.462,9.968,9.968,0,0,1,3.8-3.694A11.269,11.269,0,0,1,49.2,48.765a10.641,10.641,0,0,1,5.364,1.3,9.694,9.694,0,0,1,3.7,3.693,11.5,11.5,0,0,1,1.354,5.618v.676c0,.26-.052.52-.052.728H42.377V57.557H57.012l-1.875.988a6.021,6.021,0,0,0-.729-3.121,5.845,5.845,0,0,0-2.083-2.133,6.543,6.543,0,0,0-6.2,0,5.848,5.848,0,0,0-2.083,2.133,6.416,6.416,0,0,0-.729,3.225v.78a6.141,6.141,0,0,0,.833,3.277,5.737,5.737,0,0,0,2.4,2.185,7.714,7.714,0,0,0,3.541.78,8.567,8.567,0,0,0,3.125-.52,6.169,6.169,0,0,0,2.448-1.717l2.6,2.965a8.949,8.949,0,0,1-3.489,2.5A13.237,13.237,0,0,1,49.877,69.782Z" transform="translate(27.64 37.771)" fill="#1c3664"/>
    <path id="Path_7214" data-name="Path 7214" d="M52.824,73V44.39h4.843v12.8L57.3,62.649l.156,5.462V72.95H52.824Zm11.405.26a9.341,9.341,0,0,1-4.687-1.144,8.088,8.088,0,0,1-3.229-3.485,13.2,13.2,0,0,1-1.2-5.93,13.2,13.2,0,0,1,1.2-5.93,7.777,7.777,0,0,1,3.281-3.433,9.086,9.086,0,0,1,4.583-1.145,10.641,10.641,0,0,1,5.364,1.3,9.56,9.56,0,0,1,3.7,3.642A10.633,10.633,0,0,1,74.594,62.7a11.154,11.154,0,0,1-1.354,5.566,10.068,10.068,0,0,1-3.7,3.693A10.706,10.706,0,0,1,64.23,73.262Zm-.521-4.11a6.33,6.33,0,0,0,3.125-.78,5.657,5.657,0,0,0,2.187-2.237,7.275,7.275,0,0,0,.833-3.433,6.456,6.456,0,0,0-.833-3.433,5.336,5.336,0,0,0-2.187-2.237,6.192,6.192,0,0,0-3.125-.78,6.331,6.331,0,0,0-3.125.78A5.335,5.335,0,0,0,58.4,59.268a7.275,7.275,0,0,0-.833,3.433,6.711,6.711,0,0,0,.833,3.433,5.335,5.335,0,0,0,2.187,2.237A6.329,6.329,0,0,0,63.709,69.152Z" transform="translate(39.014 34.291)" fill="#1c3664"/>
    <path id="Path_7215" data-name="Path 7215" d="M70.308,49.527a3.151,3.151,0,0,1-2.24-.832,2.8,2.8,0,0,1-.885-2.029,2.828,2.828,0,0,1,.885-2.081,2.987,2.987,0,0,1,2.24-.832,3.356,3.356,0,0,1,2.239.78,2.438,2.438,0,0,1,.885,1.977,2.9,2.9,0,0,1-.833,2.133A3.231,3.231,0,0,1,70.308,49.527ZM67.861,73.508v-20.6H72.7v20.6Z" transform="translate(50.435 33.785)" fill="#1c3664"/>
    <path id="Path_7216" data-name="Path 7216" d="M73.8,69.568v-20.6H78.38v5.67l-.521-1.665A6.413,6.413,0,0,1,80.776,49.8a10.089,10.089,0,0,1,4.948-1.092v4.578a2.7,2.7,0,0,0-.573-.1H84.63a5.9,5.9,0,0,0-4.375,1.613,6.418,6.418,0,0,0-1.615,4.786v9.988Z" transform="translate(55.695 37.725)" fill="#1c3664"/>
    <path id="Path_7217" data-name="Path 7217" d="M92.074,73.239a10.949,10.949,0,0,1-5.364-1.353,9.692,9.692,0,0,1-3.7-3.693,12.118,12.118,0,0,1,0-11.132,9.217,9.217,0,0,1,3.7-3.642,10.776,10.776,0,0,1,5.364-1.3,9.145,9.145,0,0,1,4.635,1.145A8.249,8.249,0,0,1,99.939,56.7a13.2,13.2,0,0,1,1.2,5.93,13.233,13.233,0,0,1-1.146,5.93,7.983,7.983,0,0,1-3.177,3.485A9.05,9.05,0,0,1,92.074,73.239Zm.573-4.11a6.329,6.329,0,0,0,3.125-.78,5.335,5.335,0,0,0,2.187-2.237,6.711,6.711,0,0,0,.833-3.433,6.456,6.456,0,0,0-.833-3.433,6.023,6.023,0,0,0-2.187-2.237,6.192,6.192,0,0,0-3.125-.78,6.332,6.332,0,0,0-3.125.78,5.336,5.336,0,0,0-2.187,2.237,7.489,7.489,0,0,0,0,6.867,6.023,6.023,0,0,0,2.187,2.237A6.33,6.33,0,0,0,92.647,69.129Zm6.25,3.85V68.141l.208-5.462-.365-5.462v-12.8h4.791V73.031H98.9Z" transform="translate(61.947 34.315)" fill="#1c3664"/>
    <path id="Path_7218" data-name="Path 7218" d="M110.165,69.8a9.761,9.761,0,0,1-4.063-.78,6.64,6.64,0,0,1-2.707-2.185,5.548,5.548,0,0,1-.937-3.173,5.844,5.844,0,0,1,.833-3.121A5.511,5.511,0,0,1,106,58.36a13.144,13.144,0,0,1,5-.832h5.989v3.225h-5.625c-1.666,0-2.759.26-3.334.78a2.525,2.525,0,0,0-.833,1.925,2.493,2.493,0,0,0,1.041,2.081,4.75,4.75,0,0,0,2.917.78,5.913,5.913,0,0,0,3.176-.832,4.608,4.608,0,0,0,2.032-2.393l.833,2.913a5.454,5.454,0,0,1-2.5,2.809A9.123,9.123,0,0,1,110.165,69.8Zm6.51-.26V65.383l-.26-.884V57.216a4.271,4.271,0,0,0-1.25-3.277,5.515,5.515,0,0,0-3.855-1.2,11.264,11.264,0,0,0-3.438.52,8.509,8.509,0,0,0-2.812,1.509l-1.874-3.485a11.691,11.691,0,0,1,3.957-1.925,18.068,18.068,0,0,1,4.792-.624,10.3,10.3,0,0,1,6.926,2.133c1.614,1.4,2.449,3.641,2.449,6.607V69.545Z" transform="translate(78.49 37.748)" fill="#1c3664"/>
    <path id="Path_7219" data-name="Path 7219" d="M119.072,49.527a3.149,3.149,0,0,1-2.239-.832,2.794,2.794,0,0,1-.887-2.029,2.823,2.823,0,0,1,.887-2.081,2.986,2.986,0,0,1,2.239-.832,3.355,3.355,0,0,1,2.239.78,2.6,2.6,0,0,1,.885,1.977,2.9,2.9,0,0,1-.833,2.133A3.229,3.229,0,0,1,119.072,49.527Zm-2.395,23.982v-20.6h4.842v20.6Z" transform="translate(89.218 33.785)" fill="#1c3664"/>
    <path id="Path_7220" data-name="Path 7220" d="M7.365,75.931a5.674,5.674,0,0,1-2.083-.364,4.135,4.135,0,0,1-1.51-.884l.417-.78a4.281,4.281,0,0,0,1.354.832,5.369,5.369,0,0,0,1.823.312,3.765,3.765,0,0,0,1.458-.208,1.765,1.765,0,0,0,.833-.624,1.571,1.571,0,0,0,.26-.832A1.223,1.223,0,0,0,9.6,72.5a2.267,2.267,0,0,0-.833-.52,7.378,7.378,0,0,0-1.146-.364L6.375,71.3a3.787,3.787,0,0,1-1.146-.468,2.41,2.41,0,0,1-.833-.78A2.572,2.572,0,0,1,4.448,67.5a2.7,2.7,0,0,1,1.146-.988,4.579,4.579,0,0,1,2.031-.364,5.738,5.738,0,0,1,1.614.208,4.661,4.661,0,0,1,1.354.624l-.365.832a6.009,6.009,0,0,0-1.3-.624,6.607,6.607,0,0,0-1.354-.208,5.782,5.782,0,0,0-1.458.208A1.557,1.557,0,0,0,5.021,68.7a1.223,1.223,0,0,0,.312.884,2.269,2.269,0,0,0,.833.52c.365.1.729.26,1.146.364l1.25.312a4.426,4.426,0,0,1,1.146.468,2.285,2.285,0,0,1,.833.728,2.216,2.216,0,0,1,.312,1.249,2.346,2.346,0,0,1-.365,1.3,2.566,2.566,0,0,1-1.2.989A3.317,3.317,0,0,1,7.365,75.931Z" transform="translate(0 51.599)" fill="#46c8f5"/>
    <path id="Path_7221" data-name="Path 7221" d="M11.214,74.87a3.981,3.981,0,0,1-1.406-.26,1.87,1.87,0,0,1-1.25-1.821,2.366,2.366,0,0,1,.26-1.04,1.579,1.579,0,0,1,.885-.728,3.729,3.729,0,0,1,1.666-.26h2.5v.728H11.422a2.14,2.14,0,0,0-1.458.364,1.3,1.3,0,0,0-.417.936,1.208,1.208,0,0,0,.469.988,2.1,2.1,0,0,0,1.354.364,2.36,2.36,0,0,0,1.406-.364,2.305,2.305,0,0,0,.885-1.092l.208.676a2.543,2.543,0,0,1-.937,1.145A4.2,4.2,0,0,1,11.214,74.87Zm2.5-.1V73.154l-.052-.26V70.241a1.735,1.735,0,0,0-.521-1.4,2.248,2.248,0,0,0-1.562-.52,3.917,3.917,0,0,0-1.354.26A3.745,3.745,0,0,0,9.13,69.2l-.417-.728a4,4,0,0,1,1.3-.728,5.515,5.515,0,0,1,1.615-.26,3.149,3.149,0,0,1,2.187.676,2.676,2.676,0,0,1,.781,2.133v4.474Z" transform="translate(3.807 52.659)" fill="#46c8f5"/>
    <path id="Path_7222" data-name="Path 7222" d="M12.793,69.681v-.832h4.479v.832Zm1.3,6.4V67.965a2.3,2.3,0,0,1,.573-1.561,2.054,2.054,0,0,1,1.615-.572,4.034,4.034,0,0,1,.781.1,1.249,1.249,0,0,1,.625.364l-.312.728a2.122,2.122,0,0,0-.469-.26,2.222,2.222,0,0,0-.573-.1,1.115,1.115,0,0,0-.938.364,1.463,1.463,0,0,0-.312,1.04v1.092l.052.468v6.555H14.095Z" transform="translate(7.175 51.345)" fill="#46c8f5"/>
    <path id="Path_7223" data-name="Path 7223" d="M19.35,74.87a4.117,4.117,0,0,1-1.979-.468,3.261,3.261,0,0,1-1.354-1.3,4.187,4.187,0,0,1,0-3.849,3.343,3.343,0,0,1,1.25-1.3,3.782,3.782,0,0,1,3.646,0,3.341,3.341,0,0,1,1.25,1.3,3.9,3.9,0,0,1,.469,1.925v.312H16.278v-.728h5.781l-.365.312a3.094,3.094,0,0,0-.312-1.4,2.042,2.042,0,0,0-.938-.936,2.751,2.751,0,0,0-1.354-.364,2.406,2.406,0,0,0-1.354.364,2.156,2.156,0,0,0-.937.988,3.093,3.093,0,0,0-.313,1.4v.156a2.636,2.636,0,0,0,.365,1.457,2.724,2.724,0,0,0,1.041.988,3.4,3.4,0,0,0,1.51.364,3.585,3.585,0,0,0,1.25-.26,2.718,2.718,0,0,0,.989-.728l.573.624a3.422,3.422,0,0,1-1.2.884A6.18,6.18,0,0,1,19.35,74.87Z" transform="translate(9.367 52.659)" fill="#46c8f5"/>
    <path id="Path_7224" data-name="Path 7224" d="M19.958,69.036V68.2h4.479v.832Zm3.437,6.5a1.978,1.978,0,0,1-2.135-2.133V66.643h.989v6.711a1.5,1.5,0,0,0,.313.988,1.293,1.293,0,0,0,.937.364,1.635,1.635,0,0,0,1.094-.364l.365.728a1.718,1.718,0,0,1-.677.364A5.8,5.8,0,0,1,23.395,75.538Z" transform="translate(12.874 51.99)" fill="#46c8f5"/>
    <path id="Path_7225" data-name="Path 7225" d="M24.455,77.5a3.038,3.038,0,0,1-.99-.156,1.6,1.6,0,0,1-.781-.52l.469-.728a2.625,2.625,0,0,0,.625.416,1.667,1.667,0,0,0,.729.156,1.442,1.442,0,0,0,.833-.26,1.98,1.98,0,0,0,.677-.936l.469-1.04.1-.156,2.969-6.711h.989L26.9,75.68a3.576,3.576,0,0,1-.677,1.092,2.493,2.493,0,0,1-.781.572A3.037,3.037,0,0,1,24.455,77.5Zm1.927-2.549-3.333-7.439h1.042l2.969,6.659Z" transform="translate(15.043 52.682)" fill="#46c8f5"/>
    <path id="Path_7226" data-name="Path 7226" d="M38.984,75.931a5.674,5.674,0,0,1-2.083-.364,4.134,4.134,0,0,1-1.51-.884l.417-.78a4.283,4.283,0,0,0,1.354.832,5.37,5.37,0,0,0,1.823.312,3.766,3.766,0,0,0,1.458-.208,1.765,1.765,0,0,0,.833-.624,1.572,1.572,0,0,0,.26-.832,1.223,1.223,0,0,0-.312-.884,2.267,2.267,0,0,0-.833-.52,7.384,7.384,0,0,0-1.146-.364l-1.25-.312a3.786,3.786,0,0,1-1.146-.468,2.409,2.409,0,0,1-.833-.78,2.572,2.572,0,0,1,.052-2.549,2.7,2.7,0,0,1,1.146-.988,4.578,4.578,0,0,1,2.031-.364,5.736,5.736,0,0,1,1.614.208,4.662,4.662,0,0,1,1.354.624l-.365.832a6.009,6.009,0,0,0-1.3-.624,6.608,6.608,0,0,0-1.354-.208,5.783,5.783,0,0,0-1.458.208A1.557,1.557,0,0,0,36.64,68.7a1.223,1.223,0,0,0,.312.884,2.269,2.269,0,0,0,.833.52c.365.1.729.26,1.146.364l1.25.312a4.424,4.424,0,0,1,1.146.468,2.283,2.283,0,0,1,.833.728,2.216,2.216,0,0,1,.313,1.249,2.345,2.345,0,0,1-.365,1.3,2.566,2.566,0,0,1-1.2.989A3.317,3.317,0,0,1,38.984,75.931Z" transform="translate(25.148 51.599)" fill="#46c8f5"/>
    <path id="Path_7227" data-name="Path 7227" d="M43.921,74.87a4.118,4.118,0,0,1-1.979-.468,3.262,3.262,0,0,1-1.354-1.3,4.187,4.187,0,0,1,0-3.849,3.342,3.342,0,0,1,1.25-1.3,3.782,3.782,0,0,1,3.646,0,3.341,3.341,0,0,1,1.25,1.3,3.9,3.9,0,0,1,.469,1.925v.312H40.9v-.728h5.781l-.365.312a3.1,3.1,0,0,0-.312-1.4,2.042,2.042,0,0,0-.938-.936,2.751,2.751,0,0,0-1.354-.364,2.406,2.406,0,0,0-1.354.364,2.156,2.156,0,0,0-.937.988,3.093,3.093,0,0,0-.313,1.4v.156a2.636,2.636,0,0,0,.365,1.457,2.724,2.724,0,0,0,1.041.988,3.4,3.4,0,0,0,1.51.364,3.585,3.585,0,0,0,1.25-.26,2.718,2.718,0,0,0,.989-.728l.573.624a3.422,3.422,0,0,1-1.2.884A6.9,6.9,0,0,1,43.921,74.87Z" transform="translate(28.909 52.659)" fill="#46c8f5"/>
    <path id="Path_7228" data-name="Path 7228" d="M48.51,74.87a3.913,3.913,0,0,1-1.927-.468,3.6,3.6,0,0,1-1.354-1.3,4.186,4.186,0,0,1,0-3.849,3.26,3.26,0,0,1,1.354-1.3,3.913,3.913,0,0,1,1.927-.468,3.562,3.562,0,0,1,1.667.364,2.7,2.7,0,0,1,1.2,1.092l-.729.52a2.851,2.851,0,0,0-.937-.832,3.09,3.09,0,0,0-1.2-.26,2.715,2.715,0,0,0-2.4,1.352,2.821,2.821,0,0,0-.365,1.509,2.945,2.945,0,0,0,.365,1.509,2.991,2.991,0,0,0,.99.988,3.131,3.131,0,0,0,1.406.364,3.093,3.093,0,0,0,1.2-.26,2.229,2.229,0,0,0,.937-.78l.729.52a2.721,2.721,0,0,1-1.2,1.092A16.185,16.185,0,0,1,48.51,74.87Z" transform="translate(32.6 52.659)" fill="#46c8f5"/>
    <path id="Path_7229" data-name="Path 7229" d="M52.5,74.847a3.218,3.218,0,0,1-1.615-.364,2.349,2.349,0,0,1-1.094-1.04,3.486,3.486,0,0,1-.365-1.717V67.512h.99v4.11a2.348,2.348,0,0,0,.573,1.717,2.258,2.258,0,0,0,1.615.572,2.539,2.539,0,0,0,1.3-.312,1.952,1.952,0,0,0,.833-.884,3.1,3.1,0,0,0,.312-1.4v-3.8h.99v7.231h-.938V72.767l.156.364a2.537,2.537,0,0,1-1.094,1.248A2.86,2.86,0,0,1,52.5,74.847Z" transform="translate(36.315 52.682)" fill="#46c8f5"/>
    <path id="Path_7230" data-name="Path 7230" d="M54.652,74.766V67.535h.938v1.977l-.1-.364A2.085,2.085,0,0,1,56.527,67.9a3.194,3.194,0,0,1,1.771-.416v.936h-.208a2.209,2.209,0,0,0-1.771.676,2.9,2.9,0,0,0-.625,1.977v3.693Z" transform="translate(40.468 52.659)" fill="#46c8f5"/>
    <path id="Path_7231" data-name="Path 7231" d="M58.253,67.265a.711.711,0,0,1-.729-.728.507.507,0,0,1,.208-.468.756.756,0,0,1,1.042,0,.565.565,0,0,1,.208.468.668.668,0,0,1-.208.52A.8.8,0,0,1,58.253,67.265Zm-.469,8.791V68.826h.99v7.231Z" transform="translate(42.752 51.368)" fill="#46c8f5"/>
    <path id="Path_7232" data-name="Path 7232" d="M59.09,69.036V68.2h4.479v.832Zm3.437,6.5a1.978,1.978,0,0,1-2.135-2.133V66.643h.99v6.711a1.5,1.5,0,0,0,.312.988,1.293,1.293,0,0,0,.938.364,1.635,1.635,0,0,0,1.094-.364l.365.728a1.716,1.716,0,0,1-.677.364A5.8,5.8,0,0,1,62.527,75.538Z" transform="translate(43.998 51.99)" fill="#46c8f5"/>
    <path id="Path_7233" data-name="Path 7233" d="M63.588,77.5a3.038,3.038,0,0,1-.99-.156,1.6,1.6,0,0,1-.781-.52l.469-.728a2.618,2.618,0,0,0,.625.416,1.666,1.666,0,0,0,.729.156,1.442,1.442,0,0,0,.833-.26,1.979,1.979,0,0,0,.677-.936l.469-1.04.1-.156,2.969-6.711h.99L66.035,75.68a3.583,3.583,0,0,1-.677,1.092,2.5,2.5,0,0,1-.781.572A3.037,3.037,0,0,1,63.588,77.5Zm1.927-2.549-3.333-7.439h1.041l2.969,6.659Z" transform="translate(46.166 52.682)" fill="#46c8f5"/>
    <path id="Path_7234" data-name="Path 7234" d="M75.045,75.8V66.179h1.041V75.8Z" transform="translate(56.687 51.622)" fill="#46c8f5"/>
    <path id="Path_7235" data-name="Path 7235" d="M80.97,67.483a3.809,3.809,0,0,1,1.563.312,2.242,2.242,0,0,1,1.041,1.04,3.486,3.486,0,0,1,.365,1.717v4.214h-.99v-4.11a2.347,2.347,0,0,0-.573-1.717,2.257,2.257,0,0,0-1.614-.572,2.885,2.885,0,0,0-1.354.312,2.074,2.074,0,0,0-.885.884,3.1,3.1,0,0,0-.312,1.4v3.8h-.99V67.535h.938v1.977L78,69.148A2.537,2.537,0,0,1,79.1,67.9,4.5,4.5,0,0,1,80.97,67.483Z" transform="translate(58.417 52.659)" fill="#46c8f5"/>
    <path id="Path_7236" data-name="Path 7236" d="M81.8,69.036V68.2h4.479v.832Zm3.437,6.5a1.978,1.978,0,0,1-2.135-2.133V66.643h.99v6.711a1.5,1.5,0,0,0,.312.988,1.293,1.293,0,0,0,.938.364,1.635,1.635,0,0,0,1.094-.364l.365.728a1.716,1.716,0,0,1-.677.364A5.132,5.132,0,0,1,85.241,75.538Z" transform="translate(62.063 51.99)" fill="#46c8f5"/>
    <path id="Path_7237" data-name="Path 7237" d="M88.825,74.87a4.116,4.116,0,0,1-1.979-.468,3.262,3.262,0,0,1-1.354-1.3,4.187,4.187,0,0,1,0-3.849,3.342,3.342,0,0,1,1.25-1.3,3.782,3.782,0,0,1,3.646,0,3.341,3.341,0,0,1,1.25,1.3,3.9,3.9,0,0,1,.469,1.925v.312H85.8v-.728h5.781l-.364.312a3.094,3.094,0,0,0-.313-1.4,2.043,2.043,0,0,0-.937-.936,2.752,2.752,0,0,0-1.354-.364,2.407,2.407,0,0,0-1.354.364,2.156,2.156,0,0,0-.937.988,3.093,3.093,0,0,0-.313,1.4v.156a2.636,2.636,0,0,0,.365,1.457,2.724,2.724,0,0,0,1.041.988,3.4,3.4,0,0,0,1.51.364,3.584,3.584,0,0,0,1.25-.26,2.718,2.718,0,0,0,.989-.728l.573.624a3.422,3.422,0,0,1-1.2.884A6.9,6.9,0,0,1,88.825,74.87Z" transform="translate(64.624 52.659)" fill="#46c8f5"/>
    <path id="Path_7238" data-name="Path 7238" d="M90.042,76.057v-10.2h.989v10.2Z" transform="translate(68.615 51.368)" fill="#46c8f5"/>
    <path id="Path_7239" data-name="Path 7239" d="M92.131,76.057v-10.2h.99v10.2Z" transform="translate(70.276 51.368)" fill="#46c8f5"/>
    <path id="Path_7240" data-name="Path 7240" d="M94.774,67.265a.712.712,0,0,1-.729-.728.507.507,0,0,1,.208-.468.756.756,0,0,1,1.042,0,.565.565,0,0,1,.208.468.668.668,0,0,1-.208.52A.7.7,0,0,1,94.774,67.265Zm-.469,8.791V68.826h.99v7.231Z" transform="translate(71.799 51.368)" fill="#46c8f5"/>
    <path id="Path_7241" data-name="Path 7241" d="M99.489,74.506a3.857,3.857,0,0,1-1.875-.468,3.345,3.345,0,0,1-1.3-1.248,3.77,3.77,0,0,1,0-3.642,3.345,3.345,0,0,1,1.3-1.248,4.08,4.08,0,0,1,3.594,0,3.069,3.069,0,0,1,1.25,1.2,3.636,3.636,0,0,1,.469,1.925,3.766,3.766,0,0,1-.469,1.925,3.067,3.067,0,0,1-1.25,1.2A4.4,4.4,0,0,1,99.489,74.506Zm.156,3.017a5.983,5.983,0,0,1-1.927-.312,3.587,3.587,0,0,1-1.458-.832l.521-.728a4.921,4.921,0,0,0,1.25.728,5.522,5.522,0,0,0,1.614.26,2.792,2.792,0,0,0,2.031-.624,2.729,2.729,0,0,0,.625-1.977V72.217l.156-1.248-.1-1.248V67.535h.937v6.347a3.6,3.6,0,0,1-.937,2.757A3.763,3.763,0,0,1,99.645,77.523Zm-.052-3.9A3.1,3.1,0,0,0,101,73.31a2.441,2.441,0,0,0,.989-.936,2.574,2.574,0,0,0,.365-1.4,2.289,2.289,0,0,0-.365-1.352A2.441,2.441,0,0,0,101,68.68a3.325,3.325,0,0,0-2.812,0,2.441,2.441,0,0,0-.99.936,2.4,2.4,0,0,0-.364,1.352,2.575,2.575,0,0,0,.364,1.4,2.157,2.157,0,0,0,.99.936A3.1,3.1,0,0,0,99.593,73.622Z" transform="translate(73.229 52.659)" fill="#46c8f5"/>
    <path id="Path_7242" data-name="Path 7242" d="M104.926,74.87a4.127,4.127,0,0,1-1.98-.468,3.26,3.26,0,0,1-1.354-1.3,4.187,4.187,0,0,1,0-3.849,3.341,3.341,0,0,1,1.25-1.3,3.784,3.784,0,0,1,3.646,0,3.341,3.341,0,0,1,1.25,1.3,3.9,3.9,0,0,1,.469,1.925v.312h-6.354v-.728h5.781l-.364.312a3.1,3.1,0,0,0-.312-1.4,2.043,2.043,0,0,0-.937-.936,2.75,2.75,0,0,0-1.354-.364,2.4,2.4,0,0,0-1.354.364,2.151,2.151,0,0,0-.939.988,3.1,3.1,0,0,0-.312,1.4v.156a2.637,2.637,0,0,0,.364,1.457,2.716,2.716,0,0,0,1.043.988,3.4,3.4,0,0,0,1.51.364,3.583,3.583,0,0,0,1.25-.26,2.718,2.718,0,0,0,.989-.728l.573.624a3.422,3.422,0,0,1-1.2.884A6.177,6.177,0,0,1,104.926,74.87Z" transform="translate(77.428 52.659)" fill="#46c8f5"/>
    <path id="Path_7243" data-name="Path 7243" d="M109.862,67.483a3.807,3.807,0,0,1,1.562.312,2.245,2.245,0,0,1,1.043,1.04,3.488,3.488,0,0,1,.364,1.717v4.214h-.991v-4.11a2.348,2.348,0,0,0-.573-1.717,2.256,2.256,0,0,0-1.614-.572,2.884,2.884,0,0,0-1.354.312,2.073,2.073,0,0,0-.885.884,3.1,3.1,0,0,0-.312,1.4v3.8h-.989V67.535h.937v1.977l-.156-.364a2.537,2.537,0,0,1,1.093-1.248A4.494,4.494,0,0,1,109.862,67.483Z" transform="translate(81.397 52.659)" fill="#46c8f5"/>
    <path id="Path_7244" data-name="Path 7244" d="M114.678,74.87a3.913,3.913,0,0,1-1.928-.468,3.6,3.6,0,0,1-1.354-1.3,4.187,4.187,0,0,1,0-3.849,3.26,3.26,0,0,1,1.354-1.3,3.913,3.913,0,0,1,1.928-.468,3.56,3.56,0,0,1,1.666.364,2.7,2.7,0,0,1,1.2,1.092l-.729.52a2.851,2.851,0,0,0-.937-.832,3.088,3.088,0,0,0-1.2-.26,2.714,2.714,0,0,0-2.4,1.352,2.821,2.821,0,0,0-.364,1.509,2.945,2.945,0,0,0,.364,1.509,2.992,2.992,0,0,0,.989.988,3.137,3.137,0,0,0,1.408.364,3.092,3.092,0,0,0,1.2-.26,2.228,2.228,0,0,0,.937-.78l.729.52a2.721,2.721,0,0,1-1.2,1.092A13.187,13.187,0,0,1,114.678,74.87Z" transform="translate(85.227 52.659)" fill="#46c8f5"/>
    <path id="Path_7245" data-name="Path 7245" d="M118.995,74.87a4.115,4.115,0,0,1-1.978-.468,3.254,3.254,0,0,1-1.355-1.3,4.187,4.187,0,0,1,0-3.849,3.333,3.333,0,0,1,1.251-1.3,3.78,3.78,0,0,1,3.645,0,3.341,3.341,0,0,1,1.25,1.3,3.9,3.9,0,0,1,.469,1.925v.312h-6.3v-.728h5.781l-.364.312a3.1,3.1,0,0,0-.312-1.4,2.042,2.042,0,0,0-.937-.936,2.75,2.75,0,0,0-1.354-.364,2.4,2.4,0,0,0-1.354.364,2.169,2.169,0,0,0-.939.988,3.1,3.1,0,0,0-.312,1.4v.156a2.637,2.637,0,0,0,.364,1.457,2.742,2.742,0,0,0,1.043.988,3.4,3.4,0,0,0,1.51.364,3.583,3.583,0,0,0,1.25-.26,2.718,2.718,0,0,0,.989-.728l.573.624a3.422,3.422,0,0,1-1.2.884A6.893,6.893,0,0,1,118.995,74.87Z" transform="translate(88.618 52.659)" fill="#46c8f5"/>
    <path id="Path_7246" data-name="Path 7246" d="M31.808,70.382a.884.884,0,1,0-.885-.884A.885.885,0,0,0,31.808,70.382Z" transform="translate(21.595 53.557)" fill="#46c8f5"/>
    <path id="Path_7247" data-name="Path 7247" d="M70.621,70.382a.884.884,0,1,0-.885-.884A.885.885,0,0,0,70.621,70.382Z" transform="translate(52.465 53.557)" fill="#46c8f5"/>
    <path id="Path_7248" data-name="Path 7248" d="M139.5,37.893l4.115,6.763,14.738-16.23Z" transform="translate(107.952 21.594)" fill="#72c8f1"/>
    <path id="Path_7249" data-name="Path 7249" d="M139.5,41.211l3.022-16.959,15.831,7.491Z" transform="translate(107.952 18.275)" fill="#53a1cc"/>
    <path id="Path_7250" data-name="Path 7250" d="M167.12,14.864,141.184,31.719l15.831,7.491Z" transform="translate(109.291 10.808)" fill="#2f7cac"/>
    <path id="Path_7251" data-name="Path 7251" d="M169.41,22.187l-28.226,20.34,37.55-41.252Z" transform="translate(109.291)" fill="#016699"/>
    <path id="Path_7252" data-name="Path 7252" d="M129.406,56.369,159.613,34.1l6.718,32.721Z" transform="translate(99.923 26.11)" fill="#acd9f4"/>
    <path id="Path_7253" data-name="Path 7253" d="M129.406,58.788l22.031-16.23-10.312-11.5Z" transform="translate(99.923 23.691)" fill="#016699"/>
    <path id="Path_7254" data-name="Path 7254" d="M138.654,39.381l-5.677-2.237-5.521.416-2.083-2.237,4.948-3.849,4.531-1.717,9.478,2.341-3.072,7.231Z" transform="translate(96.716 22.654)" fill="#72c8f1"/>
    <path id="Path_7255" data-name="Path 7255" d="M137.732,36.109l-5.677-2.237-5.521.416,10,10.768,3.8-9Z" transform="translate(97.639 25.926)" fill="#46c8f5"/>
    <path id="Path_7256" data-name="Path 7256" d="M129.406,46.505l41.977,30.224L162.79,55.973Z" transform="translate(99.923 35.974)" fill="#2f7cac"/>
    <path id="Path_7257" data-name="Path 7257" d="M142.286,73.388l4.479-15.814,14.374,10.352Z" transform="translate(110.167 44.777)" fill="#46c8f5"/>
    <path id="Path_7258" data-name="Path 7258" d="M142.286,68.8l7.083,11.653,11.77-17.115Z" transform="translate(110.167 49.363)" fill="#72c8f1"/>
    <path id="Path_7259" data-name="Path 7259" d="M151.2,94.552l-5.312-9,12.4-22.213Z" transform="translate(113.028 49.363)" fill="#016699"/>
    <path id="Path_7260" data-name="Path 7260" d="M171.386,54.756,146.231,34.1l6.718,32.721Z" transform="translate(113.305 26.11)" fill="#46c8f5"/>
    <path id="Path_7261" data-name="Path 7261" d="M171.386,54.756,146.231,34.1l35.415,3.173Z" transform="translate(113.305 26.11)" fill="#53a1cc"/>
    <path id="Path_7262" data-name="Path 7262" d="M211.644,24.252,146.231,41.939,187.9,44.02Z" transform="translate(113.305 18.275)" fill="#2f7cac"/>
    <path id="Path_7263" data-name="Path 7263" d="M142.413,34.679l-28.9,2.289,21.3-4.11,2.4,1.353Z" transform="translate(87.28 25.119)" fill="#9bd4f3"/>
    <path id="Path_7264" data-name="Path 7264" d="M142.413,33.872l-28.9,2.289,27.654-.312Z" transform="translate(87.28 25.926)" fill="#2f7cac"/>
    <path id="Path_7265" data-name="Path 7265" d="M129.521,32.161,129,33.826l1.041,1.2,1.72.1.729-.676.26-1.508-1.46-1.3Z" transform="translate(99.6 24.151)" fill="#e9f4f7"/>
    <path id="Path_7266" data-name="Path 7266" d="M146.231,34.1,187.9,36.185l-6.25,1.092Z" transform="translate(113.305 26.11)" fill="#1c3664"/>
    <path id="Path_7267" data-name="Path 7267" d="M141.184,33.263l28.226-20.34-2.291,3.485Z" transform="translate(109.291 9.264)" fill="#1c3664"/>
    <path id="Path_7268" data-name="Path 7268" d="M158.278,63.34l-12.4,22.213.625-5.1Z" transform="translate(113.028 49.363)" fill="#1c3664"/>
  </g>
</svg>
